<?xml version="1.0" encoding="UTF-8" standalone="no"?>
<!DOCTYPE svg PUBLIC "-//W3C//DTD SVG 1.1//EN" "http://www.w3.org/Graphics/SVG/1.1/DTD/svg11.dtd">
<svg width="100%" height="100%" viewBox="0 0 874 438" version="1.1" xmlns="http://www.w3.org/2000/svg" xmlns:xlink="http://www.w3.org/1999/xlink" xml:space="preserve" xmlns:serif="http://www.serif.com/" style="fill-rule:evenodd;clip-rule:evenodd;stroke-linejoin:round;stroke-miterlimit:1.41421;">
    <g transform="matrix(1,0,0,1,-303.547,-1982.71)">
        <g transform="matrix(1,0,0,1,-6.70743,1553.11)">
            <path d="M384.372,721.599C383.606,655.698 381.961,581.816 384.645,581.052C392.424,578.839 434.951,739.469 446.481,761.736C451.517,771.461 498.304,768.456 502.731,761.736C515.996,741.603 556.29,578.182 564.645,581.052C572.937,583.901 566.475,671.599 564.841,721.599C563.322,768.059 558.725,855.07 564.841,861.052C572.474,868.518 632.013,866.402 634.567,861.052C640.081,849.505 644.484,460.279 634.567,438.299C632.248,433.157 555.377,429.253 548.435,438.299C530.748,461.342 474.645,681.052 474.645,681.052C474.645,681.052 414.545,457.013 400.778,438.299C391.227,425.314 318.376,428.18 314.645,438.299C306.332,460.849 311.872,849.2 314.645,861.052C316.242,867.875 379.414,869.612 384.372,861.052C389.38,852.406 384.912,768.081 384.372,721.599Z" style="fill:rgb(255,255,0);fill-rule:nonzero;"/>
            <path d="M796.286,692.595C791.893,686.187 836.408,521.051 844.645,521.052C853.498,521.054 892.303,687.574 888.571,692.595C884.216,698.456 800.398,698.592 796.286,692.595ZM931.638,861.052C934.317,864.286 1018.1,867.791 1021.58,861.052C1025.1,854.243 901.867,443.659 894.724,438.299C886.1,431.828 804.304,431.786 796.286,438.299C784.263,448.065 662.494,850.74 669.431,861.052C674.327,868.333 747.628,865.166 752.634,861.052C758.504,856.229 770.154,764.27 779.587,757.634C787.64,751.97 897.286,751.235 905.27,757.634C912.511,763.438 928.821,857.654 931.638,861.052Z" style="fill:rgb(255,255,0);fill-rule:nonzero;"/>
            <g transform="matrix(1,0,0,1,-97.3047,-3.4375)">
                <path d="M1216.4,866.619C1251.85,866.619 1280.86,836.736 1280.86,800.701C1280.86,764.373 1251.85,734.49 1216.4,734.49C1180.95,734.49 1151.95,764.373 1151.95,800.701C1151.95,836.736 1180.95,866.619 1216.4,866.619Z" style="fill:rgb(255,255,0);fill-rule:nonzero;"/>
            </g>
        </g>
    </g>
</svg>
