<?xml version="1.0" standalone="no"?><!DOCTYPE svg PUBLIC "-//W3C//DTD SVG 1.1//EN" "http://www.w3.org/Graphics/SVG/1.1/DTD/svg11.dtd"><svg width="100%" height="100%" viewBox="0 0 504 492" version="1.1" xmlns="http://www.w3.org/2000/svg" xmlns:xlink="http://www.w3.org/1999/xlink" xml:space="preserve" style="fill-rule:evenodd;clip-rule:evenodd;stroke-linejoin:round;stroke-miterlimit:1.41421;"><path d="M251.861,0.861064c-138.944,0 -251.611,112.653 -251.611,251.611c0,111.181 72.0973,205.486 172.069,238.764c12.5696,2.33332 17.1945,-5.45832 17.1945,-12.1112c0,-6.00001 -0.23613,-25.8194 -0.347265,-46.8333c-69.9999,15.2083 -84.7638,-29.6945 -84.7638,-29.6945c-11.4445,-29.0833 -27.9444,-36.8195 -27.9444,-36.8195c-22.8334,-15.611 1.72221,-15.2916 1.72221,-15.2916c25.2638,1.77778 38.5694,25.9305 38.5694,25.9305c22.4445,38.4584 58.8612,27.3472 73.2222,20.9166c2.2639,-16.2638 8.77787,-27.361 15.9723,-33.6528c-55.8889,-6.36113 -114.639,-27.9306 -114.639,-124.347c0,-27.4722 9.8334,-49.9167 25.9305,-67.5416c-2.61103,-6.33341 -11.2222,-31.9167 2.4306,-66.5834c0,0 21.1389,-6.76384 69.2223,25.7917c20.0694,-5.56946 41.5972,-8.36118 62.9723,-8.47219c21.3889,0.111008 42.9305,2.90273 63.0416,8.47219c48.0139,-32.5555 69.1251,-25.7917 69.1251,-25.7917c13.6944,34.6667 5.06935,60.25 2.45832,66.5834c16.1388,17.6249 25.9027,40.0695 25.9027,67.5416c0,96.6389 -58.861,117.917 -114.889,124.153c9.01388,7.80551 17.0556,23.1249 17.0556,46.5973c0,33.6666 -0.291697,60.7638 -0.291697,69.0416c0,6.7084 4.52779,14.5418 17.2916,12.0834c99.9167,-33.3195 171.917,-127.597 171.917,-238.736c0,-138.958 -112.653,-251.611 -251.611,-251.611Z" style="fill:#181717;"/></svg>