<?xml version="1.0" standalone="no"?><!DOCTYPE svg PUBLIC "-//W3C//DTD SVG 1.1//EN" "http://www.w3.org/Graphics/SVG/1.1/DTD/svg11.dtd"><svg width="100%" height="100%" viewBox="0 0 2212 2083" version="1.1" xmlns="http://www.w3.org/2000/svg" xmlns:xlink="http://www.w3.org/1999/xlink" xml:space="preserve" style="fill-rule:evenodd;clip-rule:evenodd;stroke-linecap:round;stroke-miterlimit:1.41421;"><g><rect x="0" y="933.403" width="2212.38" height="1149.93" style="fill:#231f20;fill-rule:nonzero;"/><path d="M635.861,231.069c-37.4722,0 -67.8611,30.3889 -67.8611,67.8749c0,29.9862 19.4444,55.4306 46.4167,64.4028c3.38885,0.625102 4.625,-1.47222 4.625,-3.27772c0,-1.61107 -0.0555674,-5.87502 -0.0833511,-11.5416c-18.8889,4.1111 -22.875,-9.09729 -22.875,-9.09729c-3.08329,-7.83335 -7.52773,-9.93055 -7.52773,-9.93055c-6.16671,-4.20837 0.458336,-4.12496 0.458336,-4.12496c6.81941,0.48612 10.4027,6.99997 10.4027,6.99997c6.05558,10.375 15.8889,7.37495 19.75,5.63889c0.624975,-4.38894 2.37497,-7.37495 4.30552,-9.06944c-15.0695,-1.72221 -30.9167,-7.54166 -30.9167,-33.5556c0,-7.40267 2.6528,-13.4583 6.98611,-18.2083c-0.694402,-1.72221 -3.02779,-8.61104 0.666682,-17.9583c0,0 5.70831,-1.83334 18.6666,6.95839c5.41668,-1.51393 11.2223,-2.2639 17,-2.29174c5.76388,0.0278473 11.5695,0.777817 16.9861,2.29174c12.9583,-8.79173 18.6389,-6.95839 18.6389,-6.95839c3.70833,9.34728 1.37501,16.2361 0.680542,17.9583c4.36115,4.75006 6.98611,10.8056 6.98611,18.2083c0,26.0834 -15.875,31.8195 -31,33.5c2.44446,2.09719 4.61114,6.23614 4.61114,12.5694c0,9.06944 -0.0833511,16.389 -0.0833511,18.6111c0,1.81948 1.22223,3.93054 4.66671,3.26385c26.9444,-8.98603 46.375,-34.4166 46.375,-64.3889c0,-37.486 -30.3889,-67.8749 -67.875,-67.8749Z" style="fill:#181717;"/><path d="M1460.86,26.8611c-138.944,0 -251.611,112.653 -251.611,251.611c0,111.181 72.0973,205.486 172.069,238.764c12.5696,2.33332 17.1945,-5.45832 17.1945,-12.1112c0,-6.00001 -0.23613,-25.8194 -0.347265,-46.8333c-69.9999,15.2083 -84.7638,-29.6945 -84.7638,-29.6945c-11.4445,-29.0833 -27.9444,-36.8195 -27.9444,-36.8195c-22.8334,-15.611 1.72221,-15.2916 1.72221,-15.2916c25.2638,1.77778 38.5694,25.9305 38.5694,25.9305c22.4445,38.4584 58.8612,27.3472 73.2222,20.9166c2.2639,-16.2638 8.77787,-27.361 15.9723,-33.6528c-55.8889,-6.36113 -114.639,-27.9306 -114.639,-124.347c0,-27.4722 9.8334,-49.9167 25.9305,-67.5416c-2.61103,-6.33341 -11.2222,-31.9167 2.4306,-66.5834c0,0 21.1389,-6.76384 69.2223,25.7917c20.0694,-5.56946 41.5972,-8.36118 62.9723,-8.47219c21.3889,0.111008 42.9305,2.90273 63.0416,8.47219c48.0139,-32.5555 69.1251,-25.7917 69.1251,-25.7917c13.6944,34.6667 5.06935,60.25 2.45832,66.5834c16.1388,17.6249 25.9027,40.0695 25.9027,67.5416c0,96.6389 -58.861,117.917 -114.889,124.153c9.01388,7.80551 17.0556,23.1249 17.0556,46.5973c0,33.6666 -0.291697,60.7638 -0.291697,69.0416c0,6.7084 4.52779,14.5418 17.2916,12.0834c99.9167,-33.3195 171.917,-127.597 171.917,-238.736c0,-138.958 -112.653,-251.611 -251.611,-251.611Z" style="fill:#181717;"/><path d="M1304.54,388.125c-0.54156,1.24995 -2.51389,1.62493 -4.30552,0.76383c-1.81948,-0.819397 -2.84716,-2.51389 -2.2639,-3.77769c0.541687,-1.2778 2.51389,-1.63892 4.33337,-0.777817c1.83334,0.819397 2.87501,2.54161 2.23605,3.79168Z" style="fill:#181717;fill-rule:nonzero;"/><path d="M1314.74,399.5c-1.19451,1.11109 -3.54169,0.583267 -5.13891,-1.16679c-1.63892,-1.74993 -1.94448,-4.09711 -0.736109,-5.23605c1.23609,-1.11109 3.51384,-0.583267 5.16663,1.16666c1.63892,1.77778 1.9722,4.09724 0.708389,5.23618Z" style="fill:#181717;fill-rule:nonzero;"/><path d="M1324.67,413.986c-1.54165,1.06939 -4.06952,0.0694275 -5.62503,-2.16662c-1.54165,-2.23618 -1.54165,-4.93062 0.0277201,-6.00001c1.56949,-1.06951 4.05566,-0.111135 5.62503,2.11105c1.54165,2.27776 1.54165,4.95834 -0.0277201,6.05558Z" style="fill:#181717;fill-rule:nonzero;"/><path d="M1338.25,427.986c-1.37494,1.51393 -4.31938,1.11122 -6.45828,-0.958252c-2.20833,-2.02777 -2.81944,-4.91664 -1.43051,-6.43056c1.3888,-1.52779 4.34723,-1.09723 6.51385,0.958252c2.18061,2.02789 2.84729,4.93062 1.37494,6.43056Z" style="fill:#181717;fill-rule:nonzero;"/><path d="M1357,436.111c-0.610987,1.9722 -3.43043,2.87501 -6.29158,2.02777c-2.8333,-0.861104 -4.70835,-3.16671 -4.12509,-5.15277c0.583394,-1.98606 3.43056,-2.91672 6.30557,-2.02777c2.83343,0.861104 4.70835,3.15272 4.1111,5.15277Z" style="fill:#181717;fill-rule:nonzero;"/><path d="M1377.6,437.625c0.0694275,2.06947 -2.34731,3.79168 -5.34732,3.83326c-3.00001,0.0694275 -5.43048,-1.61107 -5.47218,-3.6527c0,-2.09732 2.36117,-3.80554 5.37504,-3.84725c2.98615,-0.0694275 5.44446,1.59721 5.44446,3.66669Z" style="fill:#181717;fill-rule:nonzero;"/><path d="M1396.75,434.361c0.361125,2.02789 -1.70835,4.09724 -4.68051,4.65279c-2.93058,0.541687 -5.62503,-0.708262 -6.00001,-2.72217c-0.361125,-2.06947 1.74993,-4.15281 4.66665,-4.69449c2.97228,-0.51384 5.63889,0.708389 6.01387,2.76388Z" style="fill:#181717;fill-rule:nonzero;"/><path d="M937.069,2.1389l0,2.08333" style="fill:none;stroke-width:4.17px;stroke:#1981bd;"/><path d="M937.069,12.5556l0,558.305" style="fill:none;stroke-width:4.17px;stroke-dasharray:4.17,8.33;stroke:#1981bd;"/><path d="M937.069,575.028l0,2.08333" style="fill:none;stroke-width:4.17px;stroke:#1981bd;"/><path d="M555.306,635.514c-1.58329,-1.1528 -3.5972,-1.72221 -6.06944,-1.72221c-0.999959,0 -1.98612,0.0972748 -2.94444,0.291697c-0.972239,0.208282 -1.83334,0.541687 -2.58331,0.999959c-0.750033,0.47226 -1.34722,1.09723 -1.80556,1.87505c-0.444476,0.791677 -0.666682,1.76392 -0.666682,2.93058c0,1.09723 0.319481,1.98606 0.972239,2.6666c0.652758,0.694529 1.51386,1.25008 2.59724,1.68063c1.08331,0.430552 2.30554,0.791677 3.68055,1.06939c1.36108,0.291697 2.76388,0.597254 4.18053,0.930532c1.41665,0.333405 2.79166,0.722249 4.16667,1.18065c1.37501,0.444412 2.59724,1.05553 3.68055,1.81936c1.08337,0.763957 1.94448,1.7362 2.59724,2.88887c0.652758,1.18065 0.972239,2.63888 0.972239,4.41666c0,1.88891 -0.416692,3.51397 -1.2778,4.87506c-0.847181,1.34722 -1.93055,2.44446 -3.27778,3.2917c-1.31944,0.847244 -2.81944,1.47222 -4.47222,1.8472c-1.63886,0.388845 -3.29164,0.583267 -4.91664,0.583267c-2.00005,0 -3.88889,-0.24999 -5.68059,-0.749969c-1.77778,-0.49998 -3.34721,-1.26381 -4.69443,-2.27776c-1.34722,-1.01395 -2.41667,-2.31946 -3.20835,-3.90282c-0.777753,-1.58335 -1.16666,-3.45828 -1.16666,-5.6249l4.50001,0c0,1.49994 0.277774,2.7916 0.875028,3.87497c0.583331,1.08325 1.34722,1.9722 2.29168,2.6666c0.958316,0.708389 2.05555,1.22223 3.33328,1.55563c1.26394,0.333277 2.55559,0.49998 3.90282,0.49998c1.05553,0 2.1389,-0.0972748 3.22221,-0.305557c1.08331,-0.194422 2.05555,-0.527827 2.91665,-1.01395c0.875028,-0.48612 1.56943,-1.13881 2.11112,-1.9722c0.527763,-0.847244 0.791677,-1.90277 0.791677,-3.20829c0,-1.22223 -0.333341,-2.22232 -0.972239,-3.00001c-0.652758,-0.763957 -1.52779,-1.38893 -2.59724,-1.87505c-1.09717,-0.47226 -2.3194,-0.874964 -3.68055,-1.16666c-1.36108,-0.305557 -2.75002,-0.611115 -4.16667,-0.930532c-1.41665,-0.319417 -2.81944,-0.680542 -4.18053,-1.09723c-1.36115,-0.416692 -2.59724,-0.972239 -3.68055,-1.65278c-1.08337,-0.680542 -1.94448,-1.56949 -2.59724,-2.65274c-0.652758,-1.08337 -0.972239,-2.4306 -0.972239,-4.06952c0,-1.8055 0.361125,-3.361 1.09723,-4.68051c0.736109,-1.30552 1.70835,-2.38889 2.93058,-3.24999c1.20831,-0.847244 2.59717,-1.47222 4.15274,-1.88891c1.54165,-0.430552 3.13892,-0.624975 4.76392,-0.624975c1.83328,0 3.54163,0.208282 5.11106,0.638835c1.55557,0.444539 2.93058,1.12508 4.11116,2.05561c1.19445,0.930532 2.12498,2.11105 2.80552,3.5277c0.680542,1.41678 1.05559,3.11114 1.12502,5.06948l-4.50001,0c-0.263913,-2.56945 -1.19445,-4.41666 -2.7778,-5.56946Z" style="fill:#0071bc;fill-rule:nonzero;"/><path d="M573.139,640.486l0,3.80567l0.0972748,0c1.93055,-2.94444 4.70829,-4.4028 8.34719,-4.4028c1.59721,0 3.04165,0.333277 4.34723,0.999959c1.30558,0.666682 2.22225,1.79164 2.75002,3.40284c0.874964,-1.40279 2.01384,-2.48617 3.43056,-3.24999c1.41665,-0.777817 2.97222,-1.1528 4.66665,-1.1528c1.30558,0 2.4861,0.138855 3.52777,0.416692c1.05559,0.29157 1.94448,0.736109 2.70837,1.33324c0.749969,0.597254 1.31944,1.37507 1.73607,2.31946c0.430552,0.958379 0.625038,2.09719 0.625038,3.43056l0,18.9444l-4.23616,0l0,-16.9444c0,-0.805537 -0.0694275,-1.55563 -0.208282,-2.25004c-0.124995,-0.708389 -0.375048,-1.3195 -0.750033,-1.83334c-0.361125,-0.51384 -0.874964,-0.916672 -1.52779,-1.22223c-0.638898,-0.305557 -1.48608,-0.444412 -2.51389,-0.444412c-2.09719,0 -3.74997,0.597254 -4.95834,1.79164c-1.19445,1.20837 -1.79164,2.80558 -1.79164,4.80563l0,16.0971l-4.26388,0l0,-16.9444c0,-0.833384 -0.0694911,-1.59721 -0.208346,-2.3056c-0.152779,-0.694402 -0.416692,-1.30552 -0.777753,-1.81948c-0.375048,-0.51384 -0.861168,-0.916672 -1.47228,-1.20824c-0.624975,-0.277837 -1.41665,-0.416692 -2.37497,-0.416692c-1.23609,0 -2.29168,0.23613 -3.18057,0.749969c-0.888888,0.49998 -1.61107,1.09723 -2.15276,1.79164c-0.541687,0.694529 -0.944455,1.43064 -1.19445,2.18061c-0.263913,0.749969 -0.374985,1.37494 -0.374985,1.87505l0,16.0971l-4.25002,0l0,-25.8472l3.99996,0Z" style="fill:#0071bc;fill-rule:nonzero;"/><path d="M625.681,653.861c-0.861104,0.180562 -1.76385,0.333277 -2.72217,0.444412c-0.944455,0.124995 -1.91669,0.24999 -2.87501,0.402832c-0.972239,0.152715 -1.83334,0.388845 -2.59724,0.722122c-0.777753,0.333405 -1.40279,0.805664 -1.87499,1.43064c-0.48612,0.611115 -0.722249,1.45836 -0.722249,2.51389c0,0.708262 0.138919,1.30552 0.416692,1.77778c0.277774,0.48612 0.652758,0.888824 1.09723,1.18052c0.458336,0.291697 0.986099,0.51384 1.61107,0.652822c0.611115,0.138855 1.23615,0.194422 1.86113,0.194422c1.40279,0 2.6111,-0.180562 3.61112,-0.569407c0.999959,-0.388972 1.80556,-0.861231 2.44446,-1.45836c0.638835,-0.569534 1.11109,-1.20837 1.40273,-1.88891c0.291697,-0.680542 0.444476,-1.33336 0.444476,-1.93062l0,-4.34723c-0.527763,0.402832 -1.23609,0.694529 -2.09726,0.875092ZM631.639,666.889c-1.11109,0 -1.9722,-0.305557 -2.63888,-0.930532c-0.638898,-0.611115 -0.972239,-1.62493 -0.972239,-3.02773c-1.16666,1.40279 -2.52775,2.41661 -4.06946,3.02773c-1.55557,0.624975 -3.22221,0.930532 -5.02777,0.930532c-1.16666,0 -2.2639,-0.124995 -3.30556,-0.374985c-1.02774,-0.24999 -1.93055,-0.666682 -2.70831,-1.26381c-0.791677,-0.569534 -1.40279,-1.3195 -1.86113,-2.23618c-0.444412,-0.916672 -0.666682,-2.02777 -0.666682,-3.33328c0,-1.45836 0.24999,-2.66673 0.736109,-3.59726c0.500043,-0.930532 1.16666,-1.69449 1.98612,-2.27776c0.805537,-0.583394 1.74999,-1.02781 2.79166,-1.3195c1.05559,-0.305557 2.12504,-0.555547 3.23613,-0.749969c1.1528,-0.23613 2.27776,-0.402832 3.31942,-0.527827c1.04167,-0.111008 1.97226,-0.27771 2.7778,-0.49998c0.791677,-0.208282 1.43058,-0.5277 1.90277,-0.944392c0.458336,-0.430552 0.694466,-1.02781 0.694466,-1.83334c0,-0.930532 -0.166702,-1.6805 -0.527827,-2.25004c-0.347201,-0.569407 -0.805537,-0.999959 -1.34716,-1.29166c-0.541687,-0.305557 -1.16673,-0.51384 -1.84727,-0.611115c-0.694402,-0.0971476 -1.36108,-0.138855 -2.02777,-0.138855c-1.79164,0 -3.29164,0.333277 -4.50001,1.02781c-1.20831,0.680542 -1.8472,1.9722 -1.95834,3.87497l-4.24995,0c0.0694275,-1.61107 0.402768,-2.9583 1.01388,-4.05553c0.597191,-1.11109 1.38887,-2.00005 2.38889,-2.68059c0.999959,-0.680542 2.15276,-1.18052 3.45828,-1.47222c1.29172,-0.291697 2.66673,-0.444412 4.09724,-0.444412c1.16666,0 2.31946,0.0694275 3.47226,0.24999c1.15274,0.152715 2.1944,0.49998 3.125,1.02781c0.930532,0.49998 1.69442,1.23609 2.24997,2.16662c0.569471,0.930532 0.847244,2.15276 0.847244,3.65283l0,13.3055c0,0.999959 0.0694275,1.72221 0.180562,2.19447c0.111071,0.472132 0.51384,0.694402 1.18052,0.694402c0.361125,0 0.791677,-0.0834147 1.29166,-0.24999l0,3.30556c-0.736109,0.430552 -1.74999,0.652695 -3.04165,0.652695Z" style="fill:#0071bc;fill-rule:nonzero;"/><rect x="638.875" y="630.639" width="4.26388" height="35.6944" style="fill:#0071bc;fill-rule:nonzero;"/><rect x="649.986" y="630.639" width="4.25002" height="35.6944" style="fill:#0071bc;fill-rule:nonzero;"/><path d="M424.389,704.236l0,-3.74997l4.34723,0l0,-3.84725c0,-2.09719 0.611115,-3.69441 1.81945,-4.77778c1.22223,-1.08337 3.00001,-1.62506 5.33333,-1.62506c0.402768,0 0.861104,0.0278473 1.37501,0.0972748c0.513872,0.0694275 0.972207,0.166702 1.37501,0.291697l0,3.70827c-0.375017,-0.124995 -0.777785,-0.222143 -1.20834,-0.27771c-0.430552,-0.0417074 -0.833352,-0.0694275 -1.19445,-0.0694275c-1.02777,0 -1.83334,0.194422 -2.40278,0.597127c-0.569439,0.402832 -0.847212,1.16666 -0.847212,2.29174l0,3.61112l4.99999,0l0,3.74997l-4.99999,0l0,22.0973l-4.25002,0l0,-22.0973l-4.34723,0Z" style="fill:#0071bc;fill-rule:nonzero;"/><path d="M445.514,717.611c0.4028,1.22223 0.986131,2.22219 1.72224,3.05557c0.736109,0.805537 1.59721,1.43051 2.56945,1.87505c0.986099,0.416565 2.02777,0.638835 3.125,0.638835c1.11109,0 2.15276,-0.22227 3.125,-0.638835c0.986099,-0.444539 1.8472,-1.06951 2.58331,-1.87505c0.722218,-0.833384 1.30558,-1.83334 1.72224,-3.05557c0.41666,-1.22223 0.625006,-2.61103 0.625006,-4.18053c0,-1.56949 -0.208346,-2.9583 -0.625006,-4.16667c-0.41666,-1.22223 -1.00002,-2.25004 -1.72224,-3.08329c-0.736109,-0.833384 -1.59721,-1.45836 -2.58331,-1.88891c-0.972239,-0.444412 -2.01391,-0.666682 -3.125,-0.666682c-1.09723,0 -2.1389,0.22227 -3.125,0.666682c-0.972239,0.430552 -1.83334,1.05553 -2.56945,1.88891c-0.736109,0.833257 -1.31944,1.86106 -1.72224,3.08329c-0.41666,1.20837 -0.624975,2.59717 -0.624975,4.16667c0,1.56949 0.208314,2.9583 0.624975,4.18053ZM441.181,708.111c0.541655,-1.65278 1.33333,-3.08329 2.40275,-4.30552c1.06945,-1.20837 2.38889,-2.16675 3.95835,-2.87501c1.55554,-0.694402 3.3611,-1.04167 5.3889,-1.04167c2.06944,0 3.875,0.347265 5.43054,1.04167c1.55557,0.708262 2.84723,1.66664 3.93057,2.87501c1.05556,1.22223 1.8611,2.65274 2.38889,4.30552c0.541655,1.63892 0.805537,3.43056 0.805537,5.31947c0,1.90277 -0.263882,3.66669 -0.805537,5.30561c-0.527795,1.63879 -1.33333,3.05545 -2.38889,4.27767c-1.08334,1.20837 -2.375,2.16675 -3.93057,2.84729c-1.55554,0.680542 -3.3611,1.01382 -5.43054,1.01382c-2.0278,0 -3.83336,-0.333277 -5.3889,-1.01382c-1.56946,-0.680542 -2.8889,-1.63892 -3.95835,-2.84729c-1.06942,-1.22223 -1.8611,-2.63888 -2.40275,-4.27767c-0.527795,-1.63892 -0.791677,-3.40284 -0.791677,-5.30561c0,-1.88891 0.263882,-3.68055 0.791677,-5.31947Z" style="fill:#0071bc;fill-rule:nonzero;"/><path d="M474.333,700.486l0,5.44446l0.0972112,0c1.04167,-2.09732 2.30557,-3.63897 3.80557,-4.63893c1.5,-1.00009 3.40277,-1.47222 5.69442,-1.40279l0,4.49994c-1.69442,0 -3.13889,0.23613 -4.3472,0.694529c-1.19445,0.458272 -2.16668,1.1528 -2.90279,2.05549c-0.722218,0.888952 -1.26387,1.98619 -1.59721,3.26398c-0.333341,1.29166 -0.500011,2.76388 -0.500011,4.43052l0,11.5l-4.24999,0l0,-25.8472l4,0Z" style="fill:#0071bc;fill-rule:nonzero;"/><path d="M511.375,726.333l0,-25.4028l-9.19444,0l0,-3.38885c1.19445,0 2.36111,-0.0972748 3.49998,-0.291697c1.13891,-0.166702 2.15279,-0.513967 3.06946,-1.01395c0.91664,-0.49998 1.69442,-1.18052 2.33332,-2.05549c0.625006,-0.861104 1.06945,-1.95834 1.30555,-3.2917l3.2361,0l0,35.4445l-4.24999,0Z" style="fill:#0071bc;fill-rule:nonzero;"/><path d="M536.778,707.917c-0.888888,0.402832 -1.6667,0.972239 -2.29168,1.69449c-0.638898,0.722122 -1.11109,1.56937 -1.43058,2.54161c-0.305557,0.986099 -0.472228,2.02777 -0.472228,3.125c0,1.09723 0.16667,2.1389 0.500011,3.09728c0.333341,0.972112 0.805537,1.8055 1.43058,2.4999c0.611115,0.708389 1.37501,1.26394 2.29168,1.68063c0.916608,0.416692 1.95827,0.624975 3.125,0.624975c1.16666,0 2.1944,-0.208282 3.08329,-0.624975c0.875028,-0.416692 1.625,-0.986099 2.22225,-1.72221c0.597191,-0.736109 1.05553,-1.58335 1.37501,-2.52787c0.319417,-0.944392 0.472196,-1.94435 0.472196,-2.97216c0,-1.09723 -0.138919,-2.1389 -0.416692,-3.125c-0.291634,-0.986099 -0.736109,-1.83334 -1.3333,-2.54173c-0.597254,-0.722122 -1.34722,-1.30552 -2.25004,-1.73607c-0.902748,-0.430552 -1.94441,-0.652695 -3.15272,-0.652695c-1.19445,0 -2.25004,0.222143 -3.15278,0.638835ZM544.486,696.083c-1.04167,-0.972239 -2.40275,-1.4445 -4.09724,-1.4445c-1.8055,0 -3.26385,0.444412 -4.34717,1.3195c-1.11116,0.888824 -1.97226,1.99992 -2.58338,3.34714c-0.611083,1.36121 -1.04163,2.80558 -1.27776,4.37508c-0.222206,1.56937 -0.361093,3.04159 -0.388877,4.4028l0.0972112,0.0971476c0.999991,-1.62493 2.23611,-2.80558 3.72225,-3.54169c1.48608,-0.736109 3.19443,-1.11109 5.12498,-1.11109c1.69442,0 3.22221,0.291697 4.56944,0.888952c1.36108,0.569407 2.4861,1.3888 3.40277,2.41661c0.916672,1.04167 1.625,2.25004 2.12498,3.65283c0.500043,1.40279 0.750033,2.91659 0.750033,4.55551c0,1.29166 -0.194422,2.63888 -0.597254,4.04167c-0.402768,1.40279 -1.05553,2.68059 -1.9722,3.81953c-0.930532,1.15267 -2.1389,2.09719 -3.65276,2.84716c-1.51393,0.76383 -3.38891,1.12495 -5.62503,1.12495c-2.63888,0 -4.75,-0.5277 -6.34721,-1.58323c-1.59721,-1.06951 -2.83333,-2.44446 -3.70833,-4.11123c-0.861104,-1.66664 -1.43054,-3.49998 -1.72221,-5.4999c-0.291697,-2.00005 -0.416692,-3.93066 -0.416692,-5.80559c0,-2.41674 0.208346,-4.77778 0.625006,-7.0694c0.41666,-2.27788 1.12502,-4.30565 2.12501,-6.06956c0.999991,-1.76379 2.31943,-3.18044 3.99996,-4.24995c1.6667,-1.06939 3.7639,-1.59721 6.29171,-1.59721c2.93058,0 5.2639,0.763957 6.99997,2.31946c1.73613,1.55551 2.73616,3.79168 3.00001,6.72226l-4.24995,0c-0.194486,-1.59721 -0.819461,-2.87501 -1.84727,-3.84725Z" style="fill:#0071bc;fill-rule:nonzero;"/><path d="M576.306,709.667c-0.305557,-1.15267 -0.805537,-2.18048 -1.44444,-3.08329c-0.652822,-0.902812 -1.48614,-1.61107 -2.50003,-2.15276c-1.02774,-0.527827 -2.20833,-0.805537 -3.56941,-0.805537c-1.4445,0 -2.66666,0.291697 -3.65283,0.861104c-1.01388,0.569407 -1.81942,1.30552 -2.45832,2.22219c-0.638898,0.916672 -1.08331,1.95834 -1.37501,3.125c-0.277774,1.16666 -0.416629,2.34731 -0.416629,3.55555c0,1.26394 0.152779,2.48617 0.444412,3.66669c0.291697,1.19451 0.777817,2.23618 1.41665,3.125c0.666682,0.902812 1.5,1.62506 2.54167,2.18061c1.02781,0.541687 2.27782,0.819397 3.75004,0.819397c1.4583,0 2.68052,-0.27771 3.66662,-0.847244c0.986163,-0.569407 1.77778,-1.31938 2.37503,-2.24991c0.597191,-0.930659 1.04167,-2.00005 1.29166,-3.19455c0.277774,-1.20824 0.402768,-2.43047 0.402768,-3.70827c0,-1.19451 -0.152779,-2.37503 -0.472196,-3.51397ZM561.042,700.486l0,3.49998l0.0972112,0c0.694402,-1.43064 1.79164,-2.47231 3.29164,-3.125c1.5,-0.652822 3.15278,-0.972239 4.95834,-0.972239c1.99998,0 3.73611,0.361125 5.22226,1.09723c1.48608,0.722249 2.70831,1.72221 3.69441,2.97216c0.986099,1.25008 1.72221,2.69445 2.22225,4.33337c0.51384,1.62506 0.763893,3.36113 0.763893,5.19447c0,1.83334 -0.250053,3.55555 -0.736109,5.19447c-0.47226,1.63879 -1.22223,3.06943 -2.19447,4.27767c-0.986099,1.22223 -2.22225,2.16675 -3.69447,2.87501c-1.5,0.694529 -3.22221,1.04167 -5.18055,1.04167c-0.638898,0 -1.34722,-0.0555674 -2.12498,-0.194422c-0.791677,-0.138855 -1.56943,-0.347137 -2.31946,-0.652695c-0.777753,-0.291697 -1.5,-0.708389 -2.18054,-1.22223c-0.680542,-0.513967 -1.26387,-1.1528 -1.72221,-1.91676l-0.0972112,0l0,13.2917l-4.25002,0l0,-35.6944l4.25002,0Z" style="fill:#0071bc;fill-rule:nonzero;"/><path d="M584.236,700.486l5.4444,0l6.1945,9.0416l6.45828,-9.0416l5.09726,0l-8.9028,11.9027l10,13.9445l-5.44446,0l-7.20832,-10.7084l-7.19446,10.7084l-5.15277,0l9.70828,-13.5972l-8.99995,-12.25Z" style="fill:#0071bc;fill-rule:nonzero;"/><rect x="611.486" y="710.431" width="14.4445" height="3.99996" style="fill:#0071bc;fill-rule:nonzero;"/><path d="M641.986,726.333l0,-25.4028l-9.20836,0l0,-3.38885c1.20837,0 2.37503,-0.0972748 3.49998,-0.291697c1.13894,-0.166702 2.16668,-0.513967 3.08336,-1.01395c0.916672,-0.49998 1.68056,-1.18052 2.31946,-2.05549c0.638898,-0.861104 1.06945,-1.95834 1.30552,-3.2917l3.24999,0l0,35.4445l-4.24995,0Z" style="fill:#0071bc;fill-rule:nonzero;"/><path d="M658.986,698.431c0.458336,-1.52779 1.18052,-2.84716 2.16662,-3.97224c0.986099,-1.11109 2.20833,-1.98606 3.68055,-2.62502c1.45836,-0.624975 3.125,-0.944392 5.00005,-0.944392c1.52772,0 2.97222,0.22227 4.31945,0.666682c1.34722,0.444412 2.52775,1.11109 3.52777,1.95834c0.999959,0.847244 1.79164,1.90277 2.37497,3.16671c0.583331,1.26381 0.875028,2.73603 0.875028,4.40267c0,1.56949 -0.23613,2.95842 -0.722249,4.15281c-0.48612,1.19451 -1.12495,2.27776 -1.93055,3.22227c-0.791677,0.944392 -1.70835,1.8055 -2.75002,2.58331c-1.02774,0.749969 -2.09719,1.48608 -3.19443,2.19447c-1.09723,0.666682 -2.20833,1.31938 -3.30556,1.9722c-1.09717,0.652822 -2.11112,1.34722 -3.02779,2.08333c-0.916608,0.722249 -1.69442,1.51393 -2.34718,2.37503c-0.652758,0.833257 -1.06945,1.81936 -1.2778,2.91659l18.2083,0l0,3.7501l-23.1527,0c0.166639,-2.09732 0.541623,-3.88896 1.12502,-5.37504c0.583331,-1.48608 1.31944,-2.77786 2.22219,-3.87497c0.902812,-1.09723 1.91669,-2.06947 3.05557,-2.90286c1.12495,-0.833257 2.3194,-1.61107 3.54163,-2.34718c1.5,-0.930532 2.81944,-1.79164 3.95838,-2.56945c1.12495,-0.791677 2.06941,-1.58335 2.81944,-2.37503c0.749969,-0.805537 1.31944,-1.6805 1.70829,-2.59717c0.375048,-0.944519 0.569471,-2.02777 0.569471,-3.26385c0,-0.958379 -0.180562,-1.83334 -0.555547,-2.62502c-0.361125,-0.777817 -0.847244,-1.4445 -1.47222,-2.01391c-0.611115,-0.569407 -1.33336,-1.00009 -2.16668,-1.30564c-0.833321,-0.30543 -1.72221,-0.444412 -2.6528,-0.444412c-1.23609,0 -2.29162,0.24999 -3.1805,0.777817c-0.875028,0.51384 -1.61114,1.18052 -2.16668,2.01391c-0.569471,0.833257 -0.986099,1.77778 -1.23609,2.8333c-0.250053,1.04167 -0.347265,2.11105 -0.319481,3.16671l-4.25002,0c-0.0972112,-1.79176 0.0833511,-3.4584 0.555611,-5.00005Z" style="fill:#0071bc;fill-rule:nonzero;"/><path d="M690.75,713.361c0.0833511,1.65278 0.361125,3.19443 0.8056,4.65279c0.444412,1.44437 1.18052,2.6666 2.18054,3.66669c0.999959,0.999959 2.38889,1.49994 4.19445,1.49994c1.80556,0 3.19443,-0.49998 4.20831,-1.49994c0.986099,-1.00009 1.72221,-2.22232 2.16668,-3.66669c0.444412,-1.45836 0.722186,-3.00001 0.805537,-4.65279c0.0833511,-1.65278 0.124995,-3.15285 0.124995,-4.47222c0,-0.874964 -0.0138601,-1.83334 -0.0277837,-2.87501c-0.0138601,-1.05553 -0.0972112,-2.09719 -0.24999,-3.15285c-0.152779,-1.05553 -0.361125,-2.06935 -0.652758,-3.08329c-0.277774,-0.986099 -0.694466,-1.87492 -1.25001,-2.61116c-0.541687,-0.749969 -1.23609,-1.36108 -2.06947,-1.83322c-0.833321,-0.458399 -1.86106,-0.694529 -3.05551,-0.694529c-1.19445,0 -2.22225,0.23613 -3.05557,0.694529c-0.833321,0.472132 -1.51386,1.08325 -2.06947,1.83322c-0.555547,0.736237 -0.972176,1.62506 -1.24995,2.61116c-0.277774,1.01395 -0.500043,2.02777 -0.652822,3.08329c-0.152779,1.05565 -0.236066,2.09732 -0.24999,3.15285c-0.0138601,1.04167 -0.0277837,2.00005 -0.0277837,2.87501c0,1.31938 0.0417074,2.81944 0.124995,4.47222ZM686.236,704.875c0.0555674,-1.3888 0.222206,-2.76388 0.49998,-4.08325c0.263913,-1.33336 0.652822,-2.61116 1.13894,-3.80554c0.49998,-1.19451 1.19438,-2.25004 2.05555,-3.15285c0.861104,-0.902812 1.95834,-1.61107 3.27778,-2.15276c1.31944,-0.527827 2.88887,-0.791677 4.72221,-0.791677c1.83334,0 3.40277,0.26385 4.73607,0.791677c1.30558,0.541687 2.40281,1.24995 3.26392,2.15276c0.861104,0.902812 1.55557,1.95834 2.05555,3.15285c0.49998,1.19438 0.874964,2.47218 1.13888,3.80554c0.277774,1.31938 0.444476,2.69445 0.49998,4.08325c0.0694911,1.40279 0.111135,2.75002 0.111135,4.05553c0,1.30564 -0.0416438,2.65287 -0.111135,4.05566c-0.0555038,1.3888 -0.222206,2.76388 -0.49998,4.09724c-0.263913,1.33324 -0.638898,2.59717 -1.13888,3.77769c-0.49998,1.18052 -1.19445,2.22219 -2.05555,3.125c-0.861104,0.902812 -1.94448,1.61107 -3.24999,2.12504c-1.30558,0.51384 -2.87501,0.76383 -4.75,0.76383c-1.83334,0 -3.40277,-0.24999 -4.72221,-0.76383c-1.31944,-0.513967 -2.41667,-1.22223 -3.27778,-2.12504c-0.861168,-0.902812 -1.55557,-1.94448 -2.05555,-3.125c-0.48612,-1.18052 -0.875028,-2.44446 -1.13894,-3.77769c-0.277774,-1.33336 -0.444412,-2.70844 -0.49998,-4.09724c-0.0694275,-1.40279 -0.111135,-2.75002 -0.111135,-4.05566c0,-1.30552 0.0417074,-2.65274 0.111135,-4.05553Z" style="fill:#0071bc;fill-rule:nonzero;"/><path d="M734.708,709.667c-0.319417,-1.15267 -0.805537,-2.18048 -1.4583,-3.08329c-0.638898,-0.902812 -1.47222,-1.61107 -2.50003,-2.15276c-1.01388,-0.527827 -2.20833,-0.805537 -3.56948,-0.805537c-1.43051,0 -2.65274,0.291697 -3.65276,0.861104c-0.999959,0.569407 -1.81942,1.30552 -2.44446,2.22219c-0.638835,0.916672 -1.09717,1.95834 -1.37494,3.125c-0.291697,1.16666 -0.430552,2.34731 -0.430552,3.55555c0,1.26394 0.152715,2.48617 0.458272,3.66669c0.291697,1.19451 0.763893,2.23618 1.41671,3.125c0.652758,0.902812 1.5,1.62506 2.52775,2.18061c1.02781,0.541687 2.27782,0.819397 3.75004,0.819397c1.47222,0 2.69445,-0.27771 3.68055,-0.847244c0.972176,-0.569407 1.76385,-1.31938 2.37497,-2.24991c0.597254,-0.930659 1.02781,-2.00005 1.29166,-3.19455c0.263913,-1.20824 0.402832,-2.43047 0.402832,-3.70827c0,-1.19451 -0.152779,-2.37503 -0.47226,-3.51397ZM719.431,700.486l0,3.49998l0.0972748,0c0.708326,-1.43064 1.80556,-2.47231 3.30556,-3.125c1.5,-0.652822 3.15272,-0.972239 4.94442,-0.972239c1.99998,0 3.74997,0.361125 5.22219,1.09723c1.48614,0.722249 2.72223,1.72221 3.70833,2.97216c0.986163,1.25008 1.72227,2.69445 2.22225,4.33337c0.49998,1.62506 0.749969,3.36113 0.749969,5.19447c0,1.83334 -0.236066,3.55555 -0.722186,5.19447c-0.48612,1.63879 -1.22223,3.06943 -2.20833,4.27767c-0.972239,1.22223 -2.20833,2.16675 -3.69447,2.87501c-1.48608,0.694529 -3.20835,1.04167 -5.18055,1.04167c-0.624975,0 -1.3333,-0.0555674 -2.12498,-0.194422c-0.777817,-0.138855 -1.55557,-0.347137 -2.31946,-0.652695c-0.763893,-0.291697 -1.48608,-0.708389 -2.16668,-1.22223c-0.694402,-0.513967 -1.26387,-1.1528 -1.73607,-1.91676l-0.0972748,0l0,13.2917l-4.24995,0l0,-35.6944l4.24995,0Z" style="fill:#0071bc;fill-rule:nonzero;"/><path d="M742.625,700.486l5.45832,0l6.19443,9.0416l6.45835,-9.0416l5.0972,0l-8.90274,11.9027l9.99997,13.9445l-5.44446,0l-7.20832,-10.7084l-7.19446,10.7084l-5.15277,0l9.69442,-13.5972l-8.99995,-12.25Z" style="fill:#0071bc;fill-rule:nonzero;"/><path d="M1398.46,630.625l0,31.7083l18.9028,0l0,3.99996l-23.6389,0l0,-35.7082l4.73607,0Z" style="fill:#0071bc;fill-rule:nonzero;"/><path d="M1434.71,653.861c-0.861104,0.180562 -1.76392,0.333277 -2.7223,0.444412c-0.944392,0.111135 -1.90277,0.24999 -2.87501,0.402832c-0.958252,0.152715 -1.83334,0.388845 -2.59717,0.722122c-0.76383,0.333405 -1.38893,0.805664 -1.87505,1.43064c-0.48612,0.611115 -0.722122,1.45836 -0.722122,2.51389c0,0.708262 0.138855,1.29166 0.416565,1.77778c0.291697,0.48612 0.652822,0.874964 1.11122,1.18052c0.444412,0.291697 0.972112,0.51384 1.59721,0.652822c0.611115,0.124995 1.23609,0.194422 1.87492,0.194422c1.40279,0 2.5973,-0.194422 3.59726,-0.569407c0.999959,-0.388972 1.81948,-0.875092 2.44446,-1.45836c0.638835,-0.583394 1.11109,-1.22223 1.40279,-1.90277c0.305557,-0.680542 0.458272,-1.3195 0.458272,-1.91676l0,-4.36109c-0.541687,0.402832 -1.23609,0.694529 -2.11105,0.888952ZM1440.67,666.875c-1.09723,0 -1.9722,-0.305557 -2.62502,-0.916672c-0.652822,-0.624975 -0.972239,-1.62493 -0.972239,-3.02773c-1.16666,1.40279 -2.52775,2.40275 -4.08325,3.02773c-1.55563,0.611115 -3.22227,0.916672 -5.02777,0.916672c-1.16666,0 -2.2639,-0.124995 -3.2917,-0.374985c-1.04167,-0.24999 -1.94448,-0.666682 -2.7223,-1.24995c-0.791677,-0.583394 -1.40266,-1.33336 -1.8472,-2.25004c-0.458272,-0.916672 -0.680542,-2.02777 -0.680542,-3.31942c0,-1.47222 0.24999,-2.66673 0.749969,-3.59726c0.500107,-0.930532 1.1528,-1.69449 1.97233,-2.27776c0.819397,-0.583394 1.74993,-1.02781 2.80546,-1.3195c1.04167,-0.305557 2.12504,-0.555547 3.22227,-0.749969c1.16666,-0.23613 2.27776,-0.416692 3.31942,-0.527827c1.05553,-0.124995 1.9722,-0.29157 2.77774,-0.49998c0.805664,-0.222143 1.43064,-0.541687 1.9029,-0.958252c0.458272,-0.416692 0.694402,-1.01395 0.694402,-1.81948c0,-0.930532 -0.166702,-1.6805 -0.527827,-2.25004c-0.347137,-0.569407 -0.791677,-0.999959 -1.34722,-1.30552c-0.541687,-0.291697 -1.16666,-0.49998 -1.8472,-0.597254c-0.680542,-0.0971476 -1.36108,-0.152715 -2.02777,-0.152715c-1.79164,0 -3.2917,0.347137 -4.49994,1.02768c-1.19451,0.680669 -1.84733,1.97233 -1.94448,3.8751l-4.25008,0c0.0695546,-1.59721 0.402832,-2.94444 1.00009,-4.04167c0.597254,-1.11109 1.40279,-2.00005 2.38889,-2.68059c0.999959,-0.680542 2.15276,-1.18052 3.45828,-1.47222c1.30564,-0.305557 2.66673,-0.458399 4.09724,-0.458399c1.16666,0 2.33332,0.0834147 3.47226,0.250117c1.1528,0.166575 2.19447,0.51384 3.125,1.02768c0.944392,0.513967 1.69436,1.25008 2.24991,2.18061c0.569534,0.930532 0.861231,2.15276 0.861231,3.65283l0,13.2915c0,1.00009 0.0554403,1.7362 0.166575,2.20846c0.124995,0.458272 0.513967,0.694402 1.18065,0.694402c0.360998,0 0.79155,-0.0834147 1.30552,-0.24999l0,3.30556c-0.736109,0.430552 -1.75006,0.638835 -3.05557,0.638835Z" style="fill:#0071bc;fill-rule:nonzero;"/><path d="M1451.51,640.472l0,5.45832l0.0972748,0c1.02768,-2.09719 2.30548,-3.6527 3.80554,-4.65279c1.49994,-0.999959 3.40271,-1.45823 5.69445,-1.40279l0,4.50007c-1.69449,0 -3.15285,0.23613 -4.34723,0.708262c-1.19451,0.458399 -2.16675,1.1528 -2.90286,2.04175c-0.736109,0.902812 -1.26381,1.99992 -1.59721,3.27772c-0.333277,1.29166 -0.49998,2.76388 -0.49998,4.43064l0,11.4999l-4.24995,0l0,-25.8611l3.99996,0Z" style="fill:#0071bc;fill-rule:nonzero;"/><path d="M1476.89,662c0.986099,-0.569534 1.77778,-1.34722 2.37503,-2.29174c0.597254,-0.958252 1.04167,-2.02777 1.31938,-3.22215c0.291697,-1.20837 0.430552,-2.40288 0.430552,-3.61112c0,-1.12508 -0.138855,-2.25004 -0.402705,-3.34727c-0.26385,-1.09723 -0.694402,-2.09719 -1.2778,-2.97216c-0.583394,-0.888952 -1.33336,-1.59734 -2.2639,-2.12504c-0.944392,-0.541687 -2.06947,-0.805537 -3.40271,-0.805537c-1.37507,0 -2.54173,0.26385 -3.50011,0.77769c-0.972112,0.513967 -1.76379,1.20837 -2.3749,2.08333c-0.625102,0.861104 -1.06951,1.86119 -1.34722,2.98615c-0.291697,1.13894 -0.430552,2.31946 -0.430552,3.55555c0,1.16666 0.111008,2.33332 0.347137,3.49998c0.23613,1.16666 0.638962,2.22232 1.19451,3.18057c0.569407,0.944519 1.31938,1.72221 2.2639,2.29174c0.930532,0.583267 2.09719,0.874964 3.49998,0.874964c1.38893,0 2.58331,-0.291697 3.56941,-0.874964ZM1482.32,673.625c-1.94448,2.11118 -4.9722,3.15285 -9.09729,3.15285c-1.20824,0 -2.43047,-0.124995 -3.68055,-0.402832c-1.24995,-0.26385 -2.38889,-0.694402 -3.40271,-1.29166c-1.01395,-0.611115 -1.86119,-1.38893 -2.52787,-2.36104c-0.666555,-0.958379 -1.02768,-2.1389 -1.09711,-3.54169l4.24995,0c0.0277201,0.76383 0.27771,1.41665 0.722249,1.94435c0.458272,0.541687 0.999959,0.972239 1.65278,1.30564c0.652695,0.333277 1.36108,0.569407 2.12491,0.722249c0.763957,0.152715 1.50007,0.222143 2.19447,0.222143c1.40279,0 2.58331,-0.23613 3.55555,-0.722249c0.958379,-0.48612 1.77778,-1.15267 2.40275,-1.99992c0.625102,-0.847244 1.08337,-1.87505 1.37507,-3.06943c0.27771,-1.20837 0.430552,-2.51389 0.430552,-3.95838l0,-1.69449l-0.111135,0c-0.736109,1.59734 -1.83334,2.77786 -3.31942,3.52783c-1.48608,0.749969 -3.05557,1.12495 -4.72221,1.12495c-1.94448,0 -3.62498,-0.347137 -5.05562,-1.05553c-1.43051,-0.694402 -2.63888,-1.63892 -3.59713,-2.81944c-0.972239,-1.18052 -1.69449,-2.56945 -2.18061,-4.15281c-0.48612,-1.58323 -0.722249,-3.26385 -0.722249,-5.02777c0,-1.52779 0.194422,-3.11101 0.611115,-4.72221c0.388972,-1.61107 1.05553,-3.08329 1.98619,-4.4028c0.930532,-1.31938 2.18048,-2.40275 3.70827,-3.24999c1.52779,-0.847117 3.4167,-1.2778 5.63889,-1.2778c1.63892,0 3.13886,0.375112 4.50007,1.08337c1.37494,0.708389 2.43047,1.79164 3.20829,3.22227l0.0555674,0l0,-3.70839l3.9861,0l0,23.6528c0,4.23609 -0.958379,7.4028 -2.88887,9.49999Z" style="fill:#0071bc;fill-rule:nonzero;"/><path d="M1508.89,648.083c-0.388845,-0.902685 -0.902685,-1.6805 -1.55551,-2.33332c-0.638835,-0.652695 -1.41665,-1.16666 -2.29162,-1.54165c-0.888952,-0.388845 -1.86119,-0.583267 -2.93058,-0.583267c-1.09723,0 -2.09719,0.194422 -2.97228,0.583267c-0.888824,0.374985 -1.63892,0.902812 -2.27776,1.56949c-0.624975,0.666682 -1.13894,1.44437 -1.49994,2.31946c-0.361125,0.888824 -0.583394,1.83334 -0.652822,2.8333l14.8472,0c-0.0555674,-0.999959 -0.291697,-1.94448 -0.666682,-2.84729ZM1509.92,664.68c-1.93049,1.45836 -4.37495,2.19447 -7.30553,2.19447c-2.06947,0 -3.86111,-0.333277 -5.37504,-0.999959c-1.51393,-0.666682 -2.7916,-1.59721 -3.8194,-2.79172c-1.04167,-1.20824 -1.80562,-2.63888 -2.33332,-4.30552c-0.513967,-1.66664 -0.805537,-3.48612 -0.875092,-5.44446c0,-1.9722 0.305557,-3.76383 0.902812,-5.40276c0.597254,-1.63892 1.4445,-3.05557 2.52775,-4.24995c1.08337,-1.19451 2.36117,-2.1389 3.84725,-2.80558c1.48621,-0.666682 3.11114,-1.00009 4.87506,-1.00009c2.30548,0 4.20837,0.48612 5.72217,1.43064c1.51393,0.944392 2.73616,2.15276 3.65283,3.62498c0.916672,1.47222 1.55551,3.06943 1.90277,4.8055c0.347265,1.72234 0.48612,3.37512 0.416692,4.94448l-19.3473,0c-0.0278473,1.13894 0.111135,2.20833 0.402705,3.22227c0.305557,1.01382 0.791677,1.91663 1.45836,2.69445c0.652822,0.791677 1.51393,1.41665 2.54173,1.88891c1.04167,0.458272 2.24991,0.694402 3.6527,0.694402c1.80562,0 3.27784,-0.416692 4.41666,-1.25008c1.1528,-0.833257 1.91676,-2.09719 2.27788,-3.80554l4.20825,0c-0.569407,2.90286 -1.81936,5.08334 -3.74997,6.55556Z" style="fill:#0071bc;fill-rule:nonzero;"/><path d="M1522.32,640.472l0,5.45832l0.0971476,0c1.02781,-2.09719 2.29174,-3.6527 3.79168,-4.65279c1.49994,-0.999959 3.40284,-1.45823 5.70831,-1.40279l0,4.50007c-1.70835,0 -3.15272,0.23613 -4.34723,0.708262c-1.20824,0.458399 -2.18048,1.1528 -2.90273,2.04175c-0.736109,0.902812 -1.26394,1.99992 -1.59721,3.27772c-0.347265,1.29166 -0.49998,2.76388 -0.49998,4.43064l0,11.4999l-4.26394,0l0,-25.8611l4.01395,0Z" style="fill:#0071bc;fill-rule:nonzero;"/><path d="M1326.07,704.236l0,-3.74997l4.34723,0l0,-3.86111c0,-2.09732 0.611115,-3.69453 1.83334,-4.77778c1.20824,-1.08337 2.97216,-1.6112 5.31934,-1.6112c0.388972,0 0.847244,0.0278473 1.37507,0.0972748c0.51384,0.0694275 0.972239,0.166702 1.37494,0.291697l0,3.70827c-0.374985,-0.138855 -0.76383,-0.222143 -1.20824,-0.27771c-0.430552,-0.0555674 -0.833384,-0.0834147 -1.19451,-0.0834147c-1.04167,0 -1.83334,0.20841 -2.40275,0.611115c-0.569407,0.388972 -0.847244,1.16666 -0.847244,2.29174l0,3.61112l5.00005,0l0,3.74997l-5.00005,0l0,22.0973l-4.24995,0l0,-22.0973l-4.34723,0Z" style="fill:#0071bc;fill-rule:nonzero;"/><path d="M1347.19,717.597c0.416692,1.22223 0.986226,2.23605 1.72234,3.05557c0.736109,0.819397 1.58323,1.44437 2.56945,1.87492c0.986099,0.430552 2.02777,0.652822 3.125,0.652822c1.09711,0 2.13877,-0.22227 3.125,-0.652822c0.986099,-0.430552 1.8472,-1.05553 2.58331,-1.87492c0.722122,-0.819524 1.30552,-1.83334 1.72221,-3.05557c0.416692,-1.20837 0.624975,-2.59717 0.624975,-4.16667c0,-1.56949 -0.208282,-2.9583 -0.624975,-4.18053c-0.416692,-1.20837 -1.00009,-2.23618 -1.72221,-3.06943c-0.736109,-0.833384 -1.59721,-1.47222 -2.58331,-1.90277c-0.986226,-0.430552 -2.02789,-0.652822 -3.125,-0.652822c-1.09723,0 -2.1389,0.22227 -3.125,0.652822c-0.986226,0.430552 -1.83334,1.06939 -2.56945,1.90277c-0.736109,0.833257 -1.30564,1.86106 -1.72234,3.06943c-0.416565,1.22223 -0.624975,2.61103 -0.624975,4.18053c0,1.56949 0.20841,2.9583 0.624975,4.16667ZM1342.86,708.111c0.541687,-1.65278 1.33336,-3.09715 2.40275,-4.30552c1.06939,-1.22223 2.38889,-2.18061 3.9444,-2.87501c1.56949,-0.708389 3.37499,-1.05553 5.40288,-1.05553c2.06935,0 3.87497,0.347137 5.43048,1.05553c1.54165,0.694402 2.86115,1.65278 3.91668,2.87501c1.06951,1.20837 1.87505,2.65274 2.40275,4.30552c0.541687,1.63892 0.805537,3.4167 0.805537,5.31947c0,1.90277 -0.26385,3.66669 -0.805537,5.29162c-0.5277,1.63892 -1.33324,3.06943 -2.40275,4.2778c-1.05553,1.22223 -2.37503,2.16662 -3.91668,2.84729c-1.55551,0.694402 -3.36113,1.02768 -5.43048,1.02768c-2.02789,0 -3.83339,-0.333277 -5.40288,-1.02768c-1.55551,-0.680669 -2.87501,-1.62506 -3.9444,-2.84729c-1.06939,-1.20837 -1.86106,-2.63888 -2.40275,-4.2778c-0.527827,-1.62493 -0.791677,-3.38885 -0.791677,-5.29162c0,-1.90277 0.26385,-3.68055 0.791677,-5.31947Z" style="fill:#0071bc;fill-rule:nonzero;"/><path d="M1376.01,700.486l0,5.44446l0.0971476,0c1.04167,-2.09732 2.3056,-3.65283 3.80567,-4.65279c1.49994,-1.00009 3.40271,-1.47222 5.69433,-1.40279l0,4.49994c-1.69436,0 -3.15272,0.23613 -4.34723,0.708389c-1.19438,0.458272 -2.16662,1.13881 -2.90273,2.04163c-0.736109,0.902812 -1.26394,2.00005 -1.59721,3.27784c-0.333277,1.27767 -0.49998,2.76388 -0.49998,4.43052l0,11.5l-4.24995,0l0,-25.8472l3.99996,0Z" style="fill:#0071bc;fill-rule:nonzero;"/><path d="M1413.06,726.333l0,-25.4028l-9.19444,0l0,-3.40284c1.19451,0 2.36117,-0.0971476 3.49998,-0.27771c1.13894,-0.180562 2.16675,-0.527827 3.08342,-1.01395c0.902685,-0.51384 1.6805,-1.19438 2.31946,-2.05549c0.624975,-0.861104 1.06939,-1.9722 1.29166,-3.30556l3.26385,0l0,35.4584l-4.26394,0Z" style="fill:#0071bc;fill-rule:nonzero;"/><path d="M1430.07,698.431c0.458272,-1.52779 1.18052,-2.86115 2.18061,-3.97224c0.972112,-1.12495 2.19434,-1.99992 3.66656,-2.62502c1.45836,-0.638835 3.125,-0.958252 5.00005,-0.958252c1.52779,0 2.97228,0.23613 4.31951,0.680542c1.34722,0.444412 2.52775,1.09723 3.5277,1.94448c0.999959,0.861104 1.79164,1.91663 2.37503,3.18057c0.583267,1.26381 0.874964,2.73603 0.874964,4.40267c0,1.55563 -0.23613,2.94444 -0.722249,4.15281c-0.48612,1.19451 -1.12495,2.2639 -1.93049,3.22227c-0.791677,0.944392 -1.70835,1.8055 -2.75002,2.56945c-1.02781,0.76383 -2.09719,1.49994 -3.19443,2.20833c-1.09723,0.666682 -2.20833,1.31938 -3.30556,1.9722c-1.09723,0.638835 -2.11118,1.33336 -3.01387,2.06947c-0.930532,0.736109 -1.70835,1.52779 -2.36117,2.3749c-0.652695,0.847244 -1.06939,1.83334 -1.2778,2.93058l18.2083,0l0,3.7501l-23.1527,0c0.166575,-2.09732 0.54156,-3.90282 1.12495,-5.37504c0.583267,-1.48608 1.3195,-2.77786 2.22219,-3.87497c0.902812,-1.09723 1.91676,-2.06947 3.05557,-2.90286c1.12495,-0.833257 2.31946,-1.61107 3.54169,-2.34718c1.49994,-0.930532 2.8333,-1.79164 3.95838,-2.58331c1.12495,-0.777817 2.06935,-1.56949 2.81944,-2.37503c0.749969,-0.791677 1.31938,-1.66664 1.70822,-2.59717c0.375112,-0.930659 0.569534,-2.01391 0.569534,-3.24999c0,-0.958379 -0.180562,-1.84733 -0.555547,-2.62502c-0.361125,-0.777817 -0.847244,-1.45836 -1.47222,-2.02777c-0.611115,-0.555547 -1.33336,-1.00009 -2.16675,-1.29178c-0.833257,-0.30543 -1.72221,-0.458272 -2.65274,-0.458272c-1.23609,0 -2.29162,0.26385 -3.18057,0.777817c-0.874964,0.51384 -1.61107,1.19438 -2.16662,2.02777c-0.569534,0.833257 -0.972239,1.77778 -1.23609,2.81944c-0.250117,1.05553 -0.347265,2.11105 -0.319544,3.18057l-4.24995,0c-0.0972748,-1.80562 0.0832876,-3.47226 0.555547,-5.00005Z" style="fill:#0071bc;fill-rule:nonzero;"/><path d="M1461.83,713.347c0.0834147,1.65278 0.361125,3.20829 0.805664,4.65279c0.444412,1.45823 1.18052,2.68046 2.18048,3.68055c0.986099,0.999959 2.38889,1.49994 4.19451,1.49994c1.8055,0 3.19443,-0.49998 4.20825,-1.49994c0.986099,-1.00009 1.72221,-2.22232 2.16675,-3.68055c0.444412,-1.4445 0.722122,-3.00001 0.805537,-4.65279c0.0694275,-1.63892 0.124995,-3.13899 0.124995,-4.47222c0,-0.861104 -0.0138601,-1.81948 -0.0278473,-2.87501c-0.0277201,-1.04167 -0.0971476,-2.09732 -0.24999,-3.13899c-0.152715,-1.05553 -0.374985,-2.08333 -0.652695,-3.08329c-0.277837,-0.999959 -0.694529,-1.87492 -1.25008,-2.62502c-0.555547,-0.749969 -1.23609,-1.34722 -2.08333,-1.81936c-0.819397,-0.47226 -1.8472,-0.708389 -3.04159,-0.708389c-1.19451,0 -2.22232,0.23613 -3.05557,0.708389c-0.833384,0.472132 -1.52779,1.06939 -2.06947,1.81936c-0.555547,0.750097 -0.972239,1.62506 -1.24995,2.62502c-0.291697,0.999959 -0.500107,2.02777 -0.652822,3.08329c-0.152842,1.04167 -0.23613,2.09732 -0.24999,3.13899c-0.0138601,1.05553 -0.0278473,2.01391 -0.0278473,2.87501c0,1.33324 0.0417074,2.8333 0.124995,4.47222ZM1457.32,704.875c0.0555674,-1.3888 0.222143,-2.76388 0.48612,-4.09724c0.27771,-1.33324 0.652695,-2.59717 1.15267,-3.79155c0.500107,-1.20837 1.19451,-2.25004 2.05561,-3.15285c0.861104,-0.902812 1.95834,-1.62493 3.27784,-2.15276c1.31938,-0.541687 2.88887,-0.805537 4.72221,-0.805537c1.83334,0 3.40271,0.26385 4.72221,0.805537c1.31938,0.527827 2.41661,1.24995 3.27772,2.15276c0.861104,0.902812 1.55563,1.94448 2.05561,3.15285c0.49998,1.19438 0.874964,2.45832 1.13881,3.79155c0.277837,1.33336 0.444539,2.70844 0.49998,4.09724c0.0695546,1.40279 0.111135,2.75002 0.111135,4.05553c0,1.29178 -0.0415802,2.65287 -0.111135,4.05566c-0.0554403,1.3888 -0.222143,2.76388 -0.49998,4.09724c-0.26385,1.33324 -0.638835,2.58331 -1.13881,3.77769c-0.49998,1.18052 -1.19451,2.22219 -2.05561,3.125c-0.861104,0.888952 -1.94448,1.59721 -3.24999,2.12504c-1.30552,0.51384 -2.88887,0.76383 -4.74993,0.76383c-1.83334,0 -3.40284,-0.24999 -4.72221,-0.76383c-1.3195,-0.527827 -2.41674,-1.23609 -3.27784,-2.12504c-0.861104,-0.902812 -1.55551,-1.94448 -2.05561,-3.125c-0.49998,-1.19438 -0.874964,-2.44446 -1.15267,-3.77769c-0.263977,-1.33336 -0.430552,-2.70844 -0.48612,-4.09724c-0.0694275,-1.40279 -0.111135,-2.76388 -0.111135,-4.05566c0,-1.30552 0.0417074,-2.65274 0.111135,-4.05553Z" style="fill:#0071bc;fill-rule:nonzero;"/><path d="M1505.79,709.653c-0.319417,-1.1528 -0.805537,-2.18048 -1.45836,-3.06943c-0.652822,-0.902812 -1.47222,-1.62493 -2.50003,-2.15276c-1.01382,-0.527827 -2.20833,-0.805537 -3.56941,-0.805537c-1.43051,0 -2.65274,0.291697 -3.65283,0.847244c-0.999959,0.569407 -1.81936,1.31938 -2.44446,2.23605c-0.638835,0.916672 -1.09711,1.95834 -1.37494,3.125c-0.291697,1.16666 -0.430552,2.34731 -0.430552,3.54169c0,1.2778 0.152715,2.50003 0.444412,3.68055c0.305557,1.18052 0.777817,2.22219 1.43064,3.125c0.652695,0.902812 1.48608,1.62506 2.52775,2.18061c1.02781,0.541687 2.27776,0.819397 3.74997,0.819397c1.45836,0 2.69445,-0.27771 3.68055,-0.847244c0.972239,-0.569407 1.76392,-1.31938 2.37503,-2.24991c0.597254,-0.930659 1.02781,-2.00005 1.29166,-3.20841c0.26385,-1.19438 0.402832,-2.4306 0.402832,-3.69441c0,-1.20837 -0.166702,-2.37503 -0.47226,-3.52783ZM1490.51,700.486l0,3.48612l0.0972748,0c0.708389,-1.43064 1.80562,-2.47231 3.30556,-3.125c1.49994,-0.638962 3.13886,-0.972239 4.94448,-0.972239c1.99992,0 3.73611,0.374985 5.22219,1.11109c1.48608,0.722249 2.72217,1.72221 3.70827,2.97216c0.986226,1.25008 1.72234,2.69445 2.22232,4.31951c0.49998,1.63892 0.749969,3.36113 0.749969,5.20833c0,1.83334 -0.23613,3.55555 -0.722249,5.19447c-0.48612,1.62493 -1.22223,3.05545 -2.20833,4.27767c-0.972239,1.20837 -2.20833,2.16675 -3.69441,2.87501c-1.48608,0.694529 -3.20841,1.04167 -5.18061,1.04167c-0.624975,0 -1.33324,-0.0555674 -2.12491,-0.194422c-0.777817,-0.138855 -1.55563,-0.347137 -2.31946,-0.652695c-0.763957,-0.291697 -1.48621,-0.708389 -2.18061,-1.22223c-0.680542,-0.513967 -1.24995,-1.1528 -1.72221,-1.93062l-0.0972748,0l0,13.3055l-4.24995,0l0,-35.6944l4.24995,0Z" style="fill:#0071bc;fill-rule:nonzero;"/><path d="M1513.71,700.486l5.45832,0l6.19443,9.0416l6.44442,-9.0416l5.11119,0l-8.90287,11.8889l10.0001,13.9584l-5.45832,0l-7.19452,-10.7084l-7.19439,10.7084l-5.15277,0l9.69442,-13.6112l-9.00002,-12.236Z" style="fill:#0071bc;fill-rule:nonzero;"/><path d="M1579.96,711.972l0,3.40284l-10.8888,0l0,10.9584l-3.40284,0l0,-10.9584l-10.9028,0l0,-3.40284l10.9028,0l0,-10.9444l3.40284,0l0,10.9444l10.8888,0Z" style="fill:#0071bc;fill-rule:nonzero;"/><path d="M635.861,1381.07c-37.4722,0 -67.8611,30.3889 -67.8611,67.875c0,29.9861 19.4444,55.4306 46.4167,64.4028c3.38885,0.625038 4.625,-1.47222 4.625,-3.27778c0,-1.61107 -0.0555674,-5.87495 -0.0833511,-11.5416c-18.8889,4.09718 -22.875,-9.09723 -22.875,-9.09723c-3.08329,-7.84721 -7.52773,-9.93055 -7.52773,-9.93055c-6.16671,-4.20837 0.458336,-4.12502 0.458336,-4.12502c6.81941,0.48612 10.4027,6.99997 10.4027,6.99997c6.05558,10.375 15.8889,7.37502 19.75,5.63895c0.624975,-4.38894 2.37497,-7.37502 4.30552,-9.06944c-15.0695,-1.72227 -30.9167,-7.54172 -30.9167,-33.5556c0,-7.40274 2.6528,-13.4722 6.98611,-18.2083c-0.694402,-1.72221 -3.02779,-8.62503 0.666682,-17.9583c0,0 5.70831,-1.83334 18.6666,6.95833c5.41668,-1.51393 11.2223,-2.2639 17,-2.29168c5.76388,0.0277837 11.5695,0.777753 16.9861,2.29168c12.9583,-8.79167 18.6389,-6.95833 18.6389,-6.95833c3.70833,9.33329 1.37501,16.2361 0.680542,17.9583c4.36115,4.73614 6.98611,10.8056 6.98611,18.2083c0,26.0834 -15.875,31.8195 -31,33.5c2.44446,2.09719 4.61114,6.23608 4.61114,12.5694c0,9.06944 -0.0833511,16.3889 -0.0833511,18.6111c0,1.81948 1.22223,3.9306 4.66671,3.26392c26.9444,-8.98609 46.375,-34.4166 46.375,-64.3889c0,-37.4861 -30.3889,-67.875 -67.875,-67.875Z" style="fill:#fff;"/><path d="M1460.86,1176.86c-138.944,0 -251.611,112.653 -251.611,251.611c0,111.181 72.0973,205.486 172.069,238.764c12.5696,2.33332 17.1945,-5.45832 17.1945,-12.1111c0,-5.99998 -0.23613,-25.8194 -0.347265,-46.8333c-69.9999,15.2083 -84.7638,-29.6945 -84.7638,-29.6945c-11.4445,-29.0833 -27.9444,-36.8195 -27.9444,-36.8195c-22.8334,-15.6111 1.72221,-15.2917 1.72221,-15.2917c25.2638,1.76392 38.5694,25.9306 38.5694,25.9306c22.4445,38.4583 58.8612,27.3472 73.2222,20.9167c2.2639,-16.2639 8.77787,-27.375 15.9723,-33.6528c-55.8889,-6.36113 -114.639,-27.9306 -114.639,-124.347c0,-27.4722 9.8334,-49.9166 25.9305,-67.5416c-2.61103,-6.33335 -11.2222,-31.9167 2.4306,-66.5834c0,0 21.1389,-6.76384 69.2223,25.7917c20.0694,-5.56946 41.5972,-8.37498 62.9723,-8.45833c21.3889,0.0833511 42.9305,2.88887 63.0416,8.45833c48.0139,-32.5555 69.1251,-25.7917 69.1251,-25.7917c13.6944,34.6667 5.06935,60.25 2.45832,66.5834c16.1388,17.625 25.9027,40.0695 25.9027,67.5416c0,96.6389 -58.861,117.917 -114.889,124.153c9.01388,7.80551 17.0556,23.125 17.0556,46.5972c0,33.6667 -0.291697,60.75 -0.291697,69.0417c0,6.70834 4.52779,14.5417 17.2916,12.0833c99.9167,-33.3194 171.917,-127.597 171.917,-238.736c0,-138.958 -112.653,-251.611 -251.611,-251.611Z" style="fill:#fff;"/><path d="M1304.54,1538.12c-0.54156,1.25001 -2.51389,1.625 -4.30552,0.763893c-1.81948,-0.819461 -2.84716,-2.51389 -2.2639,-3.77776c0.541687,-1.2778 2.51389,-1.63892 4.33337,-0.777817c1.83334,0.819461 2.87501,2.54167 2.23605,3.79168Z" style="fill:#fff;fill-rule:nonzero;"/><path d="M1314.74,1549.5c-1.19451,1.11113 -3.54169,0.583363 -5.13891,-1.16666c-1.63892,-1.74999 -1.94448,-4.09718 -0.736109,-5.23612c1.23609,-1.11109 3.51384,-0.583331 5.16663,1.16673c1.63892,1.77778 1.9722,4.1111 0.708389,5.23605Z" style="fill:#fff;fill-rule:nonzero;"/><path d="M1324.67,1563.99c-1.54165,1.06942 -4.06952,0.0694275 -5.62503,-2.16668c-1.54165,-2.23611 -1.54165,-4.93056 0.0277201,-6.00001c1.56949,-1.06942 4.05566,-0.111103 5.62503,2.11112c1.54165,2.27779 1.54165,4.95834 -0.0277201,6.05558Z" style="fill:#fff;fill-rule:nonzero;"/><path d="M1338.25,1577.99c-1.37494,1.51386 -4.31938,1.11109 -6.45828,-0.958347c-2.20833,-2.02777 -2.81944,-4.91667 -1.43051,-6.43056c1.3888,-1.52779 4.34723,-1.0972 6.51385,0.958347c2.18061,2.02777 2.84729,4.93056 1.37494,6.43056Z" style="fill:#fff;fill-rule:nonzero;"/><path d="M1357,1586.11c-0.610987,1.97223 -3.43043,2.87501 -6.29158,2.02777c-2.8333,-0.861104 -4.70835,-3.16664 -4.12509,-5.15277c0.583394,-1.98612 3.43056,-2.91665 6.30557,-2.02777c2.83343,0.861104 4.70835,3.15275 4.1111,5.15277Z" style="fill:#fff;fill-rule:nonzero;"/><path d="M1377.6,1587.62c0.0694275,2.06944 -2.34731,3.79165 -5.34732,3.83333c-3.00001,0.0694593 -5.43048,-1.61111 -5.47218,-3.65276c0,-2.09723 2.36117,-3.80557 5.37504,-3.84725c2.98615,-0.0694275 5.44446,1.59725 5.44446,3.66669Z" style="fill:#fff;fill-rule:nonzero;"/><path d="M1396.75,1584.36c0.361125,2.02777 -1.70835,4.09721 -4.68051,4.65275c-2.93058,0.541687 -5.62503,-0.708326 -6.00001,-2.7222c-0.361125,-2.06944 1.74993,-4.15277 4.66665,-4.69446c2.97228,-0.513872 5.63889,0.708357 6.01387,2.76391Z" style="fill:#fff;fill-rule:nonzero;"/><path d="M937.069,1152.14l0,2.08333" style="fill:none;stroke-width:4.17px;stroke:#1981bd;"/><path d="M937.069,1162.56l0,558.306" style="fill:none;stroke-width:4.17px;stroke-dasharray:4.17,8.33;stroke:#1981bd;"/><path d="M937.069,1725.03l0,2.08333" style="fill:none;stroke-width:4.17px;stroke:#1981bd;"/><path d="M555.306,1785.51c-1.58329,-1.15277 -3.5972,-1.72221 -6.06944,-1.72221c-0.999959,0 -1.98612,0.0972112 -2.94444,0.291665c-0.972239,0.208314 -1.83334,0.541655 -2.58331,0.999991c-0.750033,0.472228 -1.34722,1.09723 -1.80556,1.87499c-0.444476,0.791677 -0.666682,1.76392 -0.666682,2.93058c0,1.0972 0.319481,1.98609 0.972239,2.66666c0.652758,0.694434 1.51386,1.24998 2.59724,1.68056c1.08331,0.430552 2.30554,0.791645 3.68055,1.06942c1.36108,0.291665 2.76388,0.597223 4.18053,0.930564c1.41665,0.333341 2.79166,0.722218 4.16667,1.18055c1.37501,0.444444 2.59724,1.05556 3.68055,1.81945c1.08337,0.763893 1.94448,1.7361 2.59724,2.8889c0.652758,1.18055 0.972239,2.63888 0.972239,4.41666c0,1.88888 -0.416692,3.51388 -1.2778,4.87499c-0.847181,1.34722 -1.93055,2.44446 -3.27778,3.29167c-1.31944,0.847212 -2.81944,1.47222 -4.47222,1.84724c-1.63886,0.388877 -3.29164,0.583315 -4.91664,0.583315c-2.00005,0 -3.88889,-0.24999 -5.68059,-0.749985c-1.77778,-0.500011 -3.34721,-1.2639 -4.69443,-2.27779c-1.34722,-1.01388 -2.41667,-2.31943 -3.20835,-3.90278c-0.777753,-1.58332 -1.16666,-3.45834 -1.16666,-5.62499l4.50001,0c0,1.5 0.277774,2.79166 0.875028,3.875c0.583331,1.08334 1.34722,1.97223 2.29168,2.66666c0.958316,0.708326 2.05555,1.22223 3.33328,1.55557c1.26394,0.333309 2.55559,0.49998 3.90282,0.49998c1.05553,0 2.1389,-0.0972112 3.22221,-0.305557c1.08331,-0.194422 2.05555,-0.527763 2.91665,-1.01388c0.875028,-0.48612 1.56943,-1.13888 2.11112,-1.97223c0.527763,-0.847212 0.791677,-1.90277 0.791677,-3.20832c0,-1.22223 -0.333341,-2.22222 -0.972239,-3.00001c-0.652758,-0.763893 -1.52779,-1.3889 -2.59724,-1.87499c-1.09717,-0.472228 -2.3194,-0.874996 -3.68055,-1.16669c-1.36108,-0.305525 -2.75002,-0.611083 -4.16667,-0.930532c-1.41665,-0.319449 -2.81944,-0.680574 -4.18053,-1.09723c-1.36115,-0.41666 -2.59724,-0.972207 -3.68055,-1.65278c-1.08337,-0.680542 -1.94448,-1.56943 -2.59724,-2.65277c-0.652758,-1.08334 -0.972239,-2.43057 -0.972239,-4.06946c0,-1.80553 0.361125,-3.3611 1.09723,-4.68054c0.736109,-1.30555 1.70835,-2.38889 2.93058,-3.24999c1.20831,-0.847244 2.59717,-1.47222 4.15274,-1.88891c1.54165,-0.41666 3.13892,-0.624975 4.76392,-0.624975c1.83328,0 3.54163,0.208314 5.11106,0.638866c1.55557,0.444444 2.93058,1.12502 4.11116,2.05555c1.19445,0.930564 2.12498,2.11112 2.80552,3.5278c0.680542,1.41665 1.05559,3.11111 1.12502,5.06945l-4.50001,0c-0.263913,-2.56945 -1.19445,-4.41669 -2.7778,-5.56946Z" style="fill:#0071bc;fill-rule:nonzero;"/><path d="M573.139,1790.49l0,3.80554l0.0972748,0c1.93055,-2.94444 4.70829,-4.40276 8.34719,-4.40276c1.59721,0 3.04165,0.333309 4.34723,0.999991c1.30558,0.666682 2.22225,1.79167 2.75002,3.40277c0.874964,-1.40276 2.01384,-2.4861 3.43056,-3.24999c1.41665,-0.777785 2.97222,-1.15277 4.66665,-1.15277c1.30558,0 2.4861,0.138887 3.52777,0.41666c1.05559,0.277774 1.94448,0.736109 2.70837,1.31944c0.749969,0.611115 1.31944,1.3889 1.73607,2.33332c0.430552,0.958347 0.625038,2.09723 0.625038,3.43056l0,18.9445l-4.23616,0l0,-16.9444c0,-0.805569 -0.0694275,-1.55557 -0.208282,-2.25c-0.124995,-0.708326 -0.375048,-1.31944 -0.750033,-1.83334c-0.361125,-0.513872 -0.874964,-0.916672 -1.52779,-1.2222c-0.638898,-0.305557 -1.48608,-0.444444 -2.51389,-0.444444c-2.09719,0 -3.74997,0.597223 -4.95834,1.79164c-1.19445,1.20834 -1.79164,2.80558 -1.79164,4.80556l0,16.0972l-4.26388,0l0,-16.9444c0,-0.833352 -0.0694911,-1.59721 -0.208346,-2.30557c-0.152779,-0.694434 -0.416692,-1.30555 -0.777753,-1.81942c-0.375048,-0.513903 -0.861168,-0.916672 -1.47228,-1.20834c-0.624975,-0.277774 -1.41665,-0.41666 -2.37497,-0.41666c-1.23609,0 -2.29168,0.236098 -3.18057,0.749969c-0.888888,0.500011 -1.61107,1.09723 -2.15276,1.79167c-0.541687,0.694466 -0.944455,1.43058 -1.19445,2.18058c-0.263913,0.750001 -0.374985,1.37501 -0.374985,1.87499l0,16.0972l-4.25002,0l0,-25.8472l3.99996,0Z" style="fill:#0071bc;fill-rule:nonzero;"/><path d="M625.681,1803.86c-0.861104,0.180562 -1.76385,0.333341 -2.72217,0.444444c-0.944455,0.124995 -1.91669,0.24999 -2.87501,0.402768c-0.972239,0.152779 -1.83334,0.388908 -2.59724,0.722218c-0.777753,0.333341 -1.40279,0.805569 -1.87499,1.43058c-0.48612,0.611115 -0.722249,1.45833 -0.722249,2.51389c0,0.708326 0.138919,1.30555 0.416692,1.77778c0.277774,0.48612 0.652758,0.888888 1.09723,1.18055c0.458336,0.291665 0.986099,0.513872 1.61107,0.65279c0.611115,0.138887 1.23615,0.194422 1.86113,0.194422c1.40279,0 2.6111,-0.180562 3.61112,-0.569439c0.999959,-0.388877 1.80556,-0.861104 2.44446,-1.45833c0.638835,-0.569439 1.11109,-1.20834 1.40273,-1.88888c0.291697,-0.680574 0.444476,-1.33336 0.444476,-1.93055l0,-4.34723c-0.527763,0.402768 -1.23609,0.694434 -2.09726,0.874996ZM631.639,1816.89c-1.11109,0 -1.9722,-0.305573 -2.63888,-0.930548c-0.638898,-0.611115 -0.972239,-1.62503 -0.972239,-3.02779c-1.16666,1.40276 -2.52775,2.41667 -4.06946,3.02779c-1.55557,0.624975 -3.22221,0.930548 -5.02777,0.930548c-1.16666,0 -2.2639,-0.125011 -3.30556,-0.375001c-1.02774,-0.24999 -1.93055,-0.666682 -2.70831,-1.2639c-0.791677,-0.569439 -1.40279,-1.31944 -1.86113,-2.23611c-0.444412,-0.91664 -0.666682,-2.02777 -0.666682,-3.33331c0,-1.45833 0.24999,-2.66666 0.736109,-3.59723c0.500043,-0.930564 1.16666,-1.69446 1.98612,-2.27779c0.805537,-0.583331 1.74999,-1.02777 2.79166,-1.31944c1.05559,-0.305557 2.12504,-0.555547 3.23613,-0.750001c1.1528,-0.236098 2.27776,-0.402768 3.31942,-0.527763c1.04167,-0.111135 1.97226,-0.277774 2.7778,-0.500011c0.791677,-0.208346 1.43058,-0.527763 1.90277,-0.944455c0.458336,-0.430552 0.694466,-1.02777 0.694466,-1.83331c0,-0.930564 -0.166702,-1.68056 -0.527827,-2.25c-0.347201,-0.569439 -0.805537,-0.999991 -1.34716,-1.29169c-0.541687,-0.305525 -1.16673,-0.513872 -1.84727,-0.611083c-0.694402,-0.097243 -1.36108,-0.138887 -2.02777,-0.138887c-1.79164,0 -3.29164,0.333309 -4.50001,1.02777c-1.20831,0.680542 -1.8472,1.9722 -1.95834,3.875l-4.24995,0c0.0694275,-1.61114 0.402768,-2.95836 1.01388,-4.05556c0.597191,-1.11113 1.38887,-1.98612 2.38889,-2.68056c0.999959,-0.680574 2.15276,-1.18055 3.45828,-1.47222c1.29172,-0.291665 2.66673,-0.444444 4.09724,-0.444444c1.16666,0 2.31946,0.0694275 3.47226,0.24999c1.15274,0.152779 2.1944,0.500011 3.125,1.02777c0.930532,0.500011 1.69442,1.23612 2.24997,2.16668c0.569471,0.930532 0.847244,2.15276 0.847244,3.65276l0,13.3056c0,0.999991 0.0694275,1.72221 0.180562,2.19444c0.111071,0.472228 0.51384,0.694434 1.18052,0.694434c0.361125,0 0.791677,-0.0833193 1.29166,-0.24999l0,3.30556c-0.736109,0.430552 -1.74999,0.652774 -3.04165,0.652774Z" style="fill:#0071bc;fill-rule:nonzero;"/><rect x="638.875" y="1780.64" width="4.26388" height="35.6944" style="fill:#0071bc;fill-rule:nonzero;"/><rect x="649.986" y="1780.64" width="4.25002" height="35.6944" style="fill:#0071bc;fill-rule:nonzero;"/><path d="M424.389,1854.24l0,-3.75001l4.34723,0l0,-3.84722c0,-2.09723 0.611115,-3.69445 1.81945,-4.77778c1.22223,-1.08333 3.00001,-1.625 5.33333,-1.625c0.402768,0 0.861104,0.0277678 1.37501,0.0972271c0.513872,0.0694434 0.972207,0.166655 1.37501,0.291665l0,3.70833c-0.375017,-0.125011 -0.777785,-0.222222 -1.20834,-0.277774c-0.430552,-0.0416756 -0.833352,-0.0694593 -1.19445,-0.0694593c-1.02777,0 -1.83334,0.194454 -2.40278,0.597223c-0.569439,0.402784 -0.847212,1.16668 -0.847212,2.29168l0,3.6111l4.99999,0l0,3.75001l-4.99999,0l0,22.0972l-4.25002,0l0,-22.0972l-4.34723,0Z" style="fill:#0071bc;fill-rule:nonzero;"/><path d="M445.514,1867.61c0.4028,1.22223 0.986131,2.22222 1.72224,3.05556c0.736109,0.805553 1.59721,1.43056 2.56945,1.875c0.986099,0.41666 2.02777,0.638882 3.125,0.638882c1.11109,0 2.15276,-0.222222 3.125,-0.638882c0.986099,-0.444444 1.8472,-1.06945 2.58331,-1.875c0.722218,-0.833337 1.30558,-1.83333 1.72224,-3.05556c0.41666,-1.22223 0.625006,-2.61111 0.625006,-4.18056c0,-1.56945 -0.208346,-2.95833 -0.625006,-4.16667c-0.41666,-1.22221 -1.00002,-2.25 -1.72224,-3.08332c-0.736109,-0.833337 -1.59721,-1.45834 -2.58331,-1.8889c-0.972239,-0.444444 -2.01391,-0.666666 -3.125,-0.666666c-1.09723,0 -2.1389,0.222222 -3.125,0.666666c-0.972239,0.430552 -1.83334,1.05556 -2.56945,1.8889c-0.736109,0.833321 -1.31944,1.86111 -1.72224,3.08332c-0.41666,1.20834 -0.624975,2.59722 -0.624975,4.16667c0,1.56945 0.208314,2.95833 0.624975,4.18056ZM441.181,1858.11c0.541655,-1.65278 1.33333,-3.08334 2.40275,-4.30555c1.06945,-1.20834 2.38889,-2.16667 3.95835,-2.87501c1.55554,-0.69445 3.3611,-1.04167 5.3889,-1.04167c2.06944,0 3.875,0.347217 5.43054,1.04167c1.55557,0.708342 2.84723,1.66667 3.93057,2.87501c1.05556,1.22221 1.8611,2.65277 2.38889,4.30555c0.541655,1.63889 0.805537,3.43056 0.805537,5.31944c0,1.90279 -0.263882,3.66667 -0.805537,5.30556c-0.527795,1.63889 -1.33333,3.05556 -2.38889,4.27777c-1.08334,1.20834 -2.375,2.16667 -3.93057,2.84723c-1.55554,0.680558 -3.3611,1.01388 -5.43054,1.01388c-2.0278,0 -3.83336,-0.333325 -5.3889,-1.01388c-1.56946,-0.680558 -2.8889,-1.63889 -3.95835,-2.84723c-1.06942,-1.22221 -1.8611,-2.63888 -2.40275,-4.27777c-0.527795,-1.63889 -0.791677,-3.40277 -0.791677,-5.30556c0,-1.88888 0.263882,-3.68055 0.791677,-5.31944Z" style="fill:#0071bc;fill-rule:nonzero;"/><path d="M474.333,1850.49l0,5.44445l0.0972112,0c1.04167,-2.09723 2.30557,-3.63889 3.80557,-4.63889c1.5,-0.999991 3.40277,-1.47222 5.69442,-1.40278l0,4.50001c-1.69442,0 -3.13889,0.236098 -4.3472,0.694434c-1.19445,0.458336 -2.16668,1.15279 -2.90279,2.05557c-0.722218,0.888888 -1.26387,1.98611 -1.59721,3.26389c-0.333341,1.29166 -0.500011,2.76389 -0.500011,4.43055l0,11.5l-4.24999,0l0,-25.8472l4,0Z" style="fill:#0071bc;fill-rule:nonzero;"/><path d="M511.375,1876.33l0,-25.4028l-9.19444,0l0,-3.38888c1.19445,0 2.36111,-0.0972271 3.49998,-0.291665c1.13891,-0.16667 2.15279,-0.513887 3.06946,-1.0139c0.91664,-0.499996 1.69442,-1.18055 2.33332,-2.05555c0.625006,-0.86112 1.06945,-1.95834 1.30555,-3.29167l3.2361,0l0,35.4445l-4.24999,0Z" style="fill:#0071bc;fill-rule:nonzero;"/><path d="M536.778,1857.92c-0.888888,0.402784 -1.6667,0.972223 -2.29168,1.69444c-0.638898,0.722233 -1.11109,1.56945 -1.43058,2.54167c-0.305557,0.986115 -0.472228,2.02778 -0.472228,3.125c0,1.09723 0.16667,2.1389 0.500011,3.09723c0.333341,0.972223 0.805537,1.80554 1.43058,2.49999c0.611115,0.708342 1.37501,1.26389 2.29168,1.68056c0.916608,0.41666 1.95827,0.62499 3.125,0.62499c1.16666,0 2.1944,-0.20833 3.08329,-0.62499c0.875028,-0.416676 1.625,-0.986115 2.22225,-1.72222c0.597191,-0.736109 1.05553,-1.58334 1.37501,-2.52778c0.319417,-0.944455 0.472196,-1.94445 0.472196,-2.97222c0,-1.09723 -0.138919,-2.1389 -0.416692,-3.125c-0.291634,-0.986115 -0.736109,-1.83334 -1.3333,-2.54167c-0.597254,-0.722233 -1.34722,-1.30556 -2.25004,-1.73612c-0.902748,-0.430552 -1.94441,-0.652774 -3.15272,-0.652774c-1.19445,0 -2.25004,0.222222 -3.15278,0.638882ZM544.486,1846.08c-1.04167,-0.972223 -2.40275,-1.44444 -4.09724,-1.44444c-1.8055,0 -3.26385,0.444444 -4.34717,1.31944c-1.11116,0.874996 -1.97226,2 -2.58338,3.34722c-0.611083,1.36112 -1.04163,2.80555 -1.27776,4.375c-0.222206,1.56945 -0.361093,3.04166 -0.388877,4.40278l0.0972112,0.0972271c0.999991,-1.625 2.23611,-2.80557 3.72225,-3.54168c1.48608,-0.736109 3.19443,-1.11111 5.12498,-1.11111c1.69442,0 3.22221,0.291665 4.56944,0.888888c1.36108,0.583331 2.4861,1.3889 3.40277,2.41667c0.916672,1.04167 1.625,2.25 2.12498,3.65278c0.500043,1.40278 0.750033,2.91667 0.750033,4.55556c0,1.29166 -0.194422,2.63888 -0.597254,4.04166c-0.402768,1.40278 -1.05553,2.68056 -1.9722,3.81945c-0.930532,1.15277 -2.1389,2.09723 -3.65276,2.84723c-1.51393,0.763877 -3.38891,1.12499 -5.62503,1.12499c-2.63888,0 -4.75,-0.527763 -6.34721,-1.58332c-1.59721,-1.06945 -2.83333,-2.44444 -3.70833,-4.11112c-0.861104,-1.66667 -1.43054,-3.5 -1.72221,-5.5c-0.291697,-2 -0.416692,-3.93055 -0.416692,-5.80556c0,-2.41667 0.208346,-4.77778 0.625006,-7.06944c0.41666,-2.27777 1.12502,-4.30555 2.12501,-6.06944c0.999991,-1.7639 2.31943,-3.18057 3.99996,-4.25c1.6667,-1.06945 3.7639,-1.59723 6.29171,-1.59723c2.93058,0 5.2639,0.763893 6.99997,2.31945c1.73613,1.54166 2.73616,3.79167 3.00001,6.72223l-4.24995,0c-0.194486,-1.59723 -0.819461,-2.87501 -1.84727,-3.84723Z" style="fill:#0071bc;fill-rule:nonzero;"/><path d="M576.306,1859.67c-0.305557,-1.15279 -0.805537,-2.18056 -1.44444,-3.08334c-0.652822,-0.90278 -1.48614,-1.61111 -2.50003,-2.15278c-1.02774,-0.527779 -2.20833,-0.805553 -3.56941,-0.805553c-1.4445,0 -2.66666,0.291665 -3.65283,0.861104c-1.01388,0.569455 -1.81942,1.30556 -2.45832,2.22222c-0.638898,0.916672 -1.08331,1.95834 -1.37501,3.125c-0.277774,1.16668 -0.416629,2.34723 -0.416629,3.55557c0,1.26389 0.152779,2.4861 0.444412,3.66666c0.291697,1.19445 0.777817,2.23611 1.41665,3.125c0.666682,0.90278 1.5,1.62501 2.54167,2.18056c1.02781,0.541671 2.27782,0.819445 3.75004,0.819445c1.4583,0 2.68052,-0.277774 3.66662,-0.847212c0.986163,-0.569455 1.77778,-1.31946 2.37503,-2.25c0.597191,-0.930564 1.04167,-2 1.29166,-3.19444c0.277774,-1.20834 0.402768,-2.43057 0.402768,-3.70833c0,-1.19445 -0.152779,-2.37501 -0.472196,-3.51389ZM561.042,1850.49l0,3.5l0.0972112,0c0.694402,-1.43056 1.79164,-2.47223 3.29164,-3.125c1.5,-0.652774 3.15278,-0.972223 4.95834,-0.972223c1.99998,0 3.73611,0.361109 5.22226,1.09722c1.48608,0.722233 2.70831,1.72222 3.69441,2.97222c0.986099,1.25001 1.72221,2.69445 2.22225,4.33334c0.51384,1.625 0.763893,3.36111 0.763893,5.19444c0,1.83334 -0.250053,3.55557 -0.736109,5.19446c-0.47226,1.63889 -1.22223,3.06943 -2.19447,4.27777c-0.986099,1.22223 -2.22225,2.16667 -3.69447,2.87499c-1.5,0.69445 -3.22221,1.04167 -5.18055,1.04167c-0.638898,0 -1.34722,-0.0555515 -2.12498,-0.194438c-0.791677,-0.138887 -1.56943,-0.347217 -2.31946,-0.652774c-0.777753,-0.291665 -1.5,-0.708342 -2.18054,-1.22223c-0.680542,-0.513887 -1.26387,-1.15277 -1.72221,-1.93055l-0.0972112,0l0,13.3056l-4.25002,0l0,-35.6944l4.25002,0Z" style="fill:#0071bc;fill-rule:nonzero;"/><path d="M584.236,1850.49l5.4444,0l6.1945,9.04167l6.45828,-9.04167l5.09726,0l-8.9028,11.9028l10,13.9445l-5.44446,0l-7.20832,-10.7083l-7.19446,10.7083l-5.15277,0l9.70828,-13.5972l-8.99995,-12.25Z" style="fill:#0071bc;fill-rule:nonzero;"/><rect x="611.486" y="1860.43" width="14.4445" height="4.00001" style="fill:#0071bc;fill-rule:nonzero;"/><path d="M641.986,1876.33l0,-25.4028l-9.20836,0l0,-3.38888c1.20837,0 2.37503,-0.0972271 3.49998,-0.291665c1.13894,-0.16667 2.16668,-0.513887 3.08336,-1.0139c0.916672,-0.499996 1.68056,-1.18055 2.31946,-2.05555c0.638898,-0.86112 1.06945,-1.95834 1.30552,-3.29167l3.24999,0l0,35.4445l-4.24995,0Z" style="fill:#0071bc;fill-rule:nonzero;"/><path d="M658.986,1848.43c0.458336,-1.52779 1.18052,-2.84723 2.16662,-3.97223c0.986099,-1.11111 2.20833,-1.98611 3.68055,-2.625c1.45836,-0.62499 3.125,-0.94444 5.00005,-0.94444c1.52772,0 2.97222,0.222222 4.31945,0.666666c1.34722,0.444444 2.52775,1.11111 3.52777,1.95834c0.999959,0.847212 1.79164,1.90277 2.37497,3.16666c0.583331,1.26389 0.875028,2.73611 0.875028,4.40278c0,1.56945 -0.23613,2.95833 -0.722249,4.15277c-0.48612,1.19445 -1.12495,2.27779 -1.93055,3.22223c-0.791677,0.94444 -1.70835,1.80556 -2.75002,2.58333c-1.02774,0.750001 -2.09719,1.48611 -3.19443,2.19445c-1.09723,0.666666 -2.20833,1.31944 -3.30556,1.97221c-1.09717,0.652774 -2.11112,1.34722 -3.02779,2.08333c-0.916608,0.722233 -1.69442,1.51389 -2.34718,2.375c-0.652758,0.833337 -1.06945,1.81945 -1.2778,2.91667l18.2083,0l0,3.75001l-23.1527,0c0.166639,-2.09723 0.541623,-3.88889 1.12502,-5.375c0.583331,-1.48611 1.31944,-2.77778 2.22219,-3.875c0.902812,-1.09722 1.91669,-2.06944 3.05557,-2.90278c1.12495,-0.833337 2.3194,-1.61111 3.54163,-2.34722c1.5,-0.930564 2.81944,-1.79167 3.95838,-2.56945c1.12495,-0.791661 2.06941,-1.58334 2.81944,-2.375c0.749969,-0.805553 1.31944,-1.68055 1.70829,-2.59722c0.375048,-0.94444 0.569471,-2.02778 0.569471,-3.26389c0,-0.958331 -0.180562,-1.83334 -0.555547,-2.625c-0.361125,-0.777769 -0.847244,-1.44444 -1.47222,-2.01389c-0.611115,-0.569439 -1.33336,-0.999991 -2.16668,-1.30555c-0.833321,-0.305557 -1.72221,-0.444444 -2.6528,-0.444444c-1.23609,0 -2.29162,0.24999 -3.1805,0.777769c-0.875028,0.513887 -1.61114,1.18055 -2.16668,2.01389c-0.569471,0.833337 -0.986099,1.77778 -1.23609,2.83333c-0.250053,1.04167 -0.347265,2.11112 -0.319481,3.16668l-4.25002,0c-0.0972112,-1.79167 0.0833511,-3.47223 0.555611,-5Z" style="fill:#0071bc;fill-rule:nonzero;"/><path d="M690.75,1863.36c0.0833511,1.65278 0.361125,3.19444 0.8056,4.65279c0.444412,1.44444 1.18052,2.66666 2.18054,3.66666c0.999959,1.00001 2.38889,1.5 4.19445,1.5c1.80556,0 3.19443,-0.499996 4.20831,-1.5c0.986099,-0.999991 1.72221,-2.22222 2.16668,-3.66666c0.444412,-1.45834 0.722186,-3.00001 0.805537,-4.65279c0.0833511,-1.65278 0.124995,-3.15278 0.124995,-4.47222c0,-0.874996 -0.0138601,-1.83333 -0.0277837,-2.87499c-0.0138601,-1.05556 -0.0972112,-2.09723 -0.24999,-3.15278c-0.152779,-1.05556 -0.361125,-2.06944 -0.652758,-3.06945c-0.277774,-0.999991 -0.694466,-1.88888 -1.25001,-2.62499c-0.541687,-0.750001 -1.23609,-1.37501 -2.06947,-1.83334c-0.833321,-0.45832 -1.86106,-0.694434 -3.05551,-0.694434c-1.19445,0 -2.22225,0.236114 -3.05557,0.694434c-0.833321,0.458336 -1.51386,1.08334 -2.06947,1.83334c-0.555547,0.736109 -0.972176,1.625 -1.24995,2.62499c-0.277774,1.00001 -0.500043,2.01389 -0.652822,3.06945c-0.152779,1.05556 -0.236066,2.09723 -0.24999,3.15278c-0.0138601,1.04167 -0.0277837,2 -0.0277837,2.87499c0,1.31944 0.0417074,2.81944 0.124995,4.47222ZM686.236,1854.87c0.0555674,-1.38888 0.222206,-2.76389 0.49998,-4.08333c0.263913,-1.33333 0.652822,-2.61111 1.13894,-3.80556c0.49998,-1.19445 1.19438,-2.25 2.05555,-3.15277c0.861104,-0.90278 1.95834,-1.61112 3.27778,-2.15279c1.31944,-0.527763 2.88887,-0.791661 4.72221,-0.791661c1.83334,0 3.40277,0.263898 4.73607,0.791661c1.30558,0.541671 2.40281,1.25001 3.26392,2.15279c0.861104,0.902764 1.55557,1.95832 2.05555,3.15277c0.49998,1.19445 0.874964,2.47223 1.13888,3.80556c0.277774,1.31944 0.444476,2.69445 0.49998,4.08333c0.0694911,1.40278 0.111135,2.75 0.111135,4.05556c0,1.30555 -0.0416438,2.65277 -0.111135,4.05555c-0.0555038,1.38888 -0.222206,2.76389 -0.49998,4.09722c-0.263913,1.33333 -0.638898,2.59722 -1.13888,3.77777c-0.49998,1.18055 -1.19445,2.22222 -2.05555,3.125c-0.861104,0.90278 -1.94448,1.61112 -3.24999,2.12501c-1.30558,0.513887 -2.87501,0.763877 -4.75,0.763877c-1.83334,0 -3.40277,-0.24999 -4.72221,-0.763877c-1.31944,-0.513887 -2.41667,-1.22223 -3.27778,-2.12501c-0.861168,-0.90278 -1.55557,-1.94445 -2.05555,-3.125c-0.48612,-1.18055 -0.875028,-2.44444 -1.13894,-3.77777c-0.277774,-1.33333 -0.444412,-2.70834 -0.49998,-4.09722c-0.0694275,-1.40278 -0.111135,-2.75 -0.111135,-4.05555c0,-1.30556 0.0417074,-2.65279 0.111135,-4.05556Z" style="fill:#0071bc;fill-rule:nonzero;"/><path d="M734.708,1859.67c-0.319417,-1.15279 -0.805537,-2.18056 -1.4583,-3.08334c-0.638898,-0.90278 -1.47222,-1.61111 -2.50003,-2.15278c-1.01388,-0.527779 -2.20833,-0.805553 -3.56948,-0.805553c-1.43051,0 -2.65274,0.291665 -3.65276,0.861104c-0.999959,0.569455 -1.81942,1.30556 -2.44446,2.22222c-0.638835,0.916672 -1.09717,1.95834 -1.37494,3.125c-0.291697,1.16668 -0.430552,2.34723 -0.430552,3.55557c0,1.26389 0.152715,2.4861 0.458272,3.66666c0.291697,1.19445 0.763893,2.23611 1.41671,3.125c0.652758,0.90278 1.5,1.62501 2.52775,2.18056c1.02781,0.541671 2.27782,0.819445 3.75004,0.819445c1.47222,0 2.69445,-0.277774 3.68055,-0.847212c0.972176,-0.569455 1.76385,-1.31946 2.37497,-2.25c0.597254,-0.930564 1.02781,-2 1.29166,-3.19444c0.263913,-1.20834 0.402832,-2.43057 0.402832,-3.70833c0,-1.19445 -0.152779,-2.37501 -0.47226,-3.51389ZM719.431,1850.49l0,3.5l0.0972748,0c0.708326,-1.43056 1.80556,-2.47223 3.30556,-3.125c1.5,-0.652774 3.15272,-0.972223 4.94442,-0.972223c1.99998,0 3.74997,0.361109 5.22219,1.09722c1.48614,0.722233 2.72223,1.72222 3.70833,2.97222c0.986163,1.25001 1.72227,2.69445 2.22225,4.33334c0.49998,1.625 0.749969,3.36111 0.749969,5.19444c0,1.83334 -0.236066,3.55557 -0.722186,5.19446c-0.48612,1.63889 -1.22223,3.06943 -2.20833,4.27777c-0.972239,1.22223 -2.20833,2.16667 -3.69447,2.87499c-1.48608,0.69445 -3.20835,1.04167 -5.18055,1.04167c-0.624975,0 -1.3333,-0.0555515 -2.12498,-0.194438c-0.777817,-0.138887 -1.55557,-0.347217 -2.31946,-0.652774c-0.763893,-0.291665 -1.48608,-0.708342 -2.16668,-1.22223c-0.694402,-0.513887 -1.26387,-1.15277 -1.73607,-1.93055l-0.0972748,0l0,13.3056l-4.24995,0l0,-35.6944l4.24995,0Z" style="fill:#0071bc;fill-rule:nonzero;"/><path d="M742.625,1850.49l5.45832,0l6.19443,9.04167l6.45835,-9.04167l5.0972,0l-8.90274,11.9028l9.99997,13.9445l-5.44446,0l-7.20832,-10.7083l-7.19446,10.7083l-5.15277,0l9.69442,-13.5972l-8.99995,-12.25Z" style="fill:#0071bc;fill-rule:nonzero;"/><path d="M1398.46,1780.62l0,31.7083l18.9028,0l0,4l-23.6389,0l0,-35.7083l4.73607,0Z" style="fill:#0071bc;fill-rule:nonzero;"/><path d="M1434.71,1803.86c-0.861104,0.180562 -1.76392,0.333341 -2.7223,0.444444c-0.944392,0.111103 -1.90277,0.24999 -2.87501,0.402768c-0.958252,0.152779 -1.83334,0.388908 -2.59717,0.722218c-0.76383,0.333341 -1.38893,0.805569 -1.87505,1.43058c-0.48612,0.611115 -0.722122,1.45833 -0.722122,2.51389c0,0.708326 0.138855,1.29166 0.416565,1.77778c0.291697,0.48612 0.652822,0.874996 1.11122,1.18055c0.444412,0.291665 0.972112,0.513872 1.59721,0.65279c0.611115,0.124995 1.23609,0.194422 1.87492,0.194422c1.40279,0 2.5973,-0.194422 3.59726,-0.569439c0.999959,-0.388877 1.81948,-0.874996 2.44446,-1.45833c0.638835,-0.583331 1.11109,-1.22223 1.40279,-1.90277c0.305557,-0.680574 0.458272,-1.31947 0.458272,-1.91666l0,-4.36112c-0.541687,0.402768 -1.23609,0.694434 -2.11105,0.888888ZM1440.67,1816.87c-1.09723,0 -1.9722,-0.305573 -2.62502,-0.916656c-0.652822,-0.625006 -0.972239,-1.62503 -0.972239,-3.02779c-1.16666,1.40276 -2.52775,2.40278 -4.08325,3.02779c-1.55563,0.611083 -3.22227,0.916656 -5.02777,0.916656c-1.16666,0 -2.2639,-0.125011 -3.2917,-0.375001c-1.04167,-0.24999 -1.94448,-0.666682 -2.7223,-1.25001c-0.791677,-0.583331 -1.40266,-1.33333 -1.8472,-2.25c-0.458272,-0.91664 -0.680542,-2.02777 -0.680542,-3.31942c0,-1.47222 0.24999,-2.66666 0.749969,-3.59723c0.500107,-0.930564 1.1528,-1.69446 1.97233,-2.27779c0.819397,-0.583331 1.74993,-1.02777 2.80546,-1.31944c1.04167,-0.305557 2.12504,-0.555547 3.22227,-0.750001c1.16666,-0.236098 2.27776,-0.41666 3.31942,-0.527763c1.05553,-0.124995 1.9722,-0.291665 2.77774,-0.500011c0.805664,-0.222206 1.43064,-0.541655 1.9029,-0.958347c0.458272,-0.41666 0.694402,-1.01388 0.694402,-1.81942c0,-0.930564 -0.166702,-1.68056 -0.527827,-2.25c-0.347137,-0.569439 -0.791677,-0.999991 -1.34722,-1.30555c-0.541687,-0.291665 -1.16666,-0.500011 -1.8472,-0.597223c-0.680542,-0.097243 -1.36108,-0.152779 -2.02777,-0.152779c-1.79164,0 -3.2917,0.347201 -4.49994,1.02777c-1.19451,0.680542 -1.84733,1.9722 -1.94448,3.875l-4.25008,0c0.0695546,-1.59725 0.402832,-2.94447 1.00009,-4.04167c0.597254,-1.11113 1.40279,-2.00001 2.38889,-2.68056c0.999959,-0.680574 2.15276,-1.18055 3.45828,-1.47222c1.30564,-0.305557 2.66673,-0.458336 4.09724,-0.458336c1.16666,0 2.33332,0.0833193 3.47226,0.24999c1.1528,0.16667 2.19447,0.513903 3.125,1.02777c0.944392,0.513903 1.69436,1.25001 2.24991,2.18058c0.569534,0.930532 0.861231,2.15276 0.861231,3.65276l0,13.2917c0,0.999991 0.0554403,1.7361 0.166575,2.20833c0.124995,0.458336 0.513967,0.694434 1.18065,0.694434c0.360998,0 0.79155,-0.0833193 1.30552,-0.24999l0,3.30556c-0.736109,0.430552 -1.75006,0.638882 -3.05557,0.638882Z" style="fill:#0071bc;fill-rule:nonzero;"/><path d="M1451.51,1790.47l0,5.45832l0.0972748,0c1.02768,-2.09723 2.30548,-3.65276 3.80554,-4.65279c1.49994,-0.999991 3.40271,-1.45833 5.69445,-1.40276l0,4.50001c-1.69449,0 -3.15285,0.236098 -4.34723,0.708326c-1.19451,0.458336 -2.16675,1.15277 -2.90286,2.04166c-0.736109,0.90278 -1.26381,2.00001 -1.59721,3.27778c-0.333277,1.29166 -0.49998,2.76391 -0.49998,4.43055l0,11.5l-4.24995,0l0,-25.8611l3.99996,0Z" style="fill:#0071bc;fill-rule:nonzero;"/><path d="M1476.89,1812c0.986099,-0.583331 1.77778,-1.34722 2.37503,-2.29165c0.597254,-0.958347 1.04167,-2.0278 1.31938,-3.22224c0.291697,-1.20834 0.430552,-2.40278 0.430552,-3.61112c0,-1.12499 -0.138855,-2.24997 -0.402705,-3.34721c-0.26385,-1.09723 -0.694402,-2.09723 -1.2778,-2.97222c-0.583394,-0.888888 -1.33336,-1.59721 -2.2639,-2.12501c-0.944392,-0.541655 -2.06947,-0.805537 -3.40271,-0.805537c-1.37507,0 -2.54173,0.263882 -3.50011,0.777753c-0.972112,0.513903 -1.76379,1.20834 -2.3749,2.08333c-0.625102,0.861136 -1.06951,1.86113 -1.34722,2.98611c-0.291697,1.13891 -0.430552,2.31946 -0.430552,3.55555c0,1.16669 0.111008,2.33335 0.347137,3.50002c0.23613,1.16666 0.638962,2.22222 1.19451,3.18057c0.569407,0.944424 1.31938,1.70832 2.2639,2.29165c0.930532,0.583331 2.09719,0.874996 3.49998,0.874996c1.38893,0 2.58331,-0.291665 3.56941,-0.874996ZM1482.32,1823.62c-1.94448,2.11112 -4.9722,3.15278 -9.09729,3.15278c-1.20824,0 -2.43047,-0.125011 -3.68055,-0.402784c-1.24995,-0.263882 -2.38889,-0.69445 -3.40271,-1.29167c-1.01395,-0.611099 -1.86119,-1.38888 -2.52787,-2.36111c-0.666555,-0.958331 -1.02768,-2.13888 -1.09711,-3.54166l4.24995,0c0.0277201,0.763893 0.27771,1.41667 0.722249,1.94445c0.458272,0.541655 0.999959,0.972223 1.65278,1.30555c0.652695,0.333341 1.36108,0.569439 2.12491,0.722218c0.763957,0.152779 1.50007,0.222222 2.19447,0.222222c1.40279,0 2.58331,-0.236098 3.55555,-0.722218c0.958379,-0.486104 1.77778,-1.15277 2.40275,-2c0.625102,-0.847228 1.08337,-1.875 1.37507,-3.06945c0.27771,-1.20832 0.430552,-2.51387 0.430552,-3.95834l0,-1.69442l-0.111135,0c-0.736109,1.59721 -1.83334,2.77777 -3.31942,3.52777c-1.48608,0.750001 -3.05557,1.12499 -4.72221,1.12499c-1.94448,0 -3.62498,-0.347201 -5.05562,-1.05556c-1.43051,-0.694434 -2.63888,-1.63889 -3.59713,-2.81944c-0.972239,-1.18055 -1.69449,-2.56942 -2.18061,-4.15277c-0.48612,-1.58332 -0.722249,-3.26389 -0.722249,-5.02777c0,-1.52779 0.194422,-3.11111 0.611115,-4.72221c0.388972,-1.61111 1.05553,-3.08332 1.98619,-4.4028c0.930532,-1.31944 2.18048,-2.40275 3.70827,-3.24999c1.52779,-0.847212 3.4167,-1.27776 5.63889,-1.27776c1.63892,0 3.13886,0.374985 4.50007,1.08334c1.37494,0.708326 2.43047,1.79164 3.20829,3.22221l0.0555674,0l0,-3.70833l3.9861,0l0,23.6528c0,4.23611 -0.958379,7.40277 -2.88887,9.49999Z" style="fill:#0071bc;fill-rule:nonzero;"/><path d="M1508.89,1798.08c-0.388845,-0.90278 -0.902685,-1.68056 -1.55551,-2.33335c-0.638835,-0.652758 -1.41665,-1.16666 -2.29162,-1.54165c-0.888952,-0.388908 -1.86119,-0.583331 -2.93058,-0.583331c-1.09723,0 -2.09719,0.194422 -2.97228,0.583331c-0.888824,0.374985 -1.63892,0.90278 -2.27776,1.56943c-0.624975,0.666682 -1.13894,1.44444 -1.49994,2.31946c-0.361125,0.888888 -0.583394,1.83331 -0.652822,2.83333l14.8472,0c-0.0555674,-1.00002 -0.291697,-1.94445 -0.666682,-2.84723ZM1509.92,1814.68c-1.93049,1.45833 -4.37495,2.19445 -7.30553,2.19445c-2.06947,0 -3.86111,-0.333325 -5.37504,-1.00001c-1.51393,-0.66665 -2.7916,-1.59721 -3.8194,-2.79166c-1.04167,-1.20834 -1.80562,-2.63888 -2.33332,-4.30555c-0.513967,-1.66667 -0.805537,-3.48612 -0.875092,-5.44446c0,-1.9722 0.305557,-3.76387 0.902812,-5.40276c0.597254,-1.63889 1.4445,-3.05557 2.52775,-4.25002c1.08337,-1.19445 2.36117,-2.13887 3.84725,-2.80555c1.48621,-0.66665 3.11114,-0.999991 4.87506,-0.999991c2.30548,0 4.20837,0.48612 5.72217,1.43054c1.51393,0.944455 2.73616,2.15279 3.65283,3.62501c0.916672,1.47222 1.55551,3.06943 1.90277,4.80556c0.347265,1.72221 0.48612,3.37499 0.416692,4.94442l-19.3473,0c-0.0278473,1.13891 0.111135,2.20833 0.402705,3.22224c0.305557,1.01388 0.791677,1.91666 1.45836,2.69445c0.652822,0.791645 1.51393,1.41665 2.54173,1.88888c1.04167,0.458336 2.24991,0.694434 3.6527,0.694434c1.80562,0 3.27784,-0.41666 4.41666,-1.24998c1.1528,-0.833352 1.91676,-2.09723 2.27788,-3.80557l4.20825,0c-0.569407,2.90279 -1.81936,5.08334 -3.74997,6.55556Z" style="fill:#0071bc;fill-rule:nonzero;"/><path d="M1522.32,1790.47l0,5.45832l0.0971476,0c1.02781,-2.09723 2.29174,-3.65276 3.79168,-4.65279c1.49994,-0.999991 3.40284,-1.45833 5.70831,-1.40276l0,4.50001c-1.70835,0 -3.15272,0.236098 -4.34723,0.708326c-1.20824,0.458336 -2.18048,1.15277 -2.90273,2.04166c-0.736109,0.90278 -1.26394,2.00001 -1.59721,3.27778c-0.347265,1.29166 -0.49998,2.76391 -0.49998,4.43055l0,11.5l-4.26394,0l0,-25.8611l4.01395,0Z" style="fill:#0071bc;fill-rule:nonzero;"/><path d="M1326.07,1854.24l0,-3.75001l4.34723,0l0,-3.86111c0,-2.09723 0.611115,-3.69444 1.83334,-4.77778c1.20824,-1.08333 2.97216,-1.61111 5.31934,-1.61111c0.388972,0 0.847244,0.0277678 1.37507,0.0972271c0.51384,0.0694434 0.972239,0.166655 1.37494,0.291665l0,3.70833c-0.374985,-0.138887 -0.76383,-0.222222 -1.20824,-0.277774c-0.430552,-0.0555674 -0.833384,-0.0833352 -1.19451,-0.0833352c-1.04167,0 -1.83334,0.20833 -2.40275,0.611099c-0.569407,0.388892 -0.847244,1.16668 -0.847244,2.29168l0,3.6111l5.00005,0l0,3.75001l-5.00005,0l0,22.0972l-4.24995,0l0,-22.0972l-4.34723,0Z" style="fill:#0071bc;fill-rule:nonzero;"/><path d="M1347.19,1867.6c0.416692,1.22223 0.986226,2.23611 1.72234,3.05556c0.736109,0.819445 1.58323,1.44445 2.56945,1.875c0.986099,0.430552 2.02777,0.652774 3.125,0.652774c1.09711,0 2.13877,-0.222222 3.125,-0.652774c0.986099,-0.430552 1.8472,-1.05556 2.58331,-1.875c0.722122,-0.819445 1.30552,-1.83333 1.72221,-3.05556c0.416692,-1.20834 0.624975,-2.59722 0.624975,-4.16667c0,-1.56945 -0.208282,-2.95833 -0.624975,-4.18056c-0.416692,-1.20832 -1.00009,-2.23611 -1.72221,-3.06943c-0.736109,-0.833337 -1.59721,-1.47223 -2.58331,-1.90279c-0.986226,-0.430552 -2.02789,-0.652774 -3.125,-0.652774c-1.09723,0 -2.1389,0.222222 -3.125,0.652774c-0.986226,0.430552 -1.83334,1.06945 -2.56945,1.90279c-0.736109,0.833321 -1.30564,1.86111 -1.72234,3.06943c-0.416565,1.22223 -0.624975,2.61111 -0.624975,4.18056c0,1.56945 0.20841,2.95833 0.624975,4.16667ZM1342.86,1858.11c0.541687,-1.65278 1.33336,-3.09723 2.40275,-4.30555c1.06939,-1.22223 2.38889,-2.18056 3.9444,-2.87501c1.56949,-0.708326 3.37499,-1.05556 5.40288,-1.05556c2.06935,0 3.87497,0.347233 5.43048,1.05556c1.54165,0.69445 2.86115,1.65278 3.91668,2.87501c1.06951,1.20832 1.87505,2.65277 2.40275,4.30555c0.541687,1.63889 0.805537,3.41667 0.805537,5.31944c0,1.90279 -0.26385,3.66667 -0.805537,5.29167c-0.5277,1.63889 -1.33324,3.06945 -2.40275,4.27779c-1.05553,1.22221 -2.37503,2.16665 -3.91668,2.84721c-1.55551,0.69445 -3.36113,1.02777 -5.43048,1.02777c-2.02789,0 -3.83339,-0.333325 -5.40288,-1.02777c-1.55551,-0.680558 -2.87501,-1.625 -3.9444,-2.84721c-1.06939,-1.20834 -1.86106,-2.6389 -2.40275,-4.27779c-0.527827,-1.625 -0.791677,-3.38888 -0.791677,-5.29167c0,-1.90277 0.26385,-3.68055 0.791677,-5.31944Z" style="fill:#0071bc;fill-rule:nonzero;"/><path d="M1376.01,1850.49l0,5.44445l0.0971476,0c1.04167,-2.09723 2.3056,-3.65278 3.80567,-4.65279c1.49994,-0.999991 3.40271,-1.47222 5.69433,-1.40278l0,4.50001c-1.69436,0 -3.15272,0.236114 -4.34723,0.708326c-1.19438,0.458336 -2.16662,1.13889 -2.90273,2.04167c-0.736109,0.90278 -1.26394,2 -1.59721,3.27778c-0.333277,1.27778 -0.49998,2.76389 -0.49998,4.43055l0,11.5l-4.24995,0l0,-25.8472l3.99996,0Z" style="fill:#0071bc;fill-rule:nonzero;"/><path d="M1413.06,1876.33l0,-25.4028l-9.19444,0l0,-3.40277c1.19451,0 2.36117,-0.0972271 3.49998,-0.277774c1.13894,-0.180562 2.16675,-0.527779 3.08342,-1.0139c0.902685,-0.513887 1.6805,-1.19445 2.31946,-2.05555c0.624975,-0.86112 1.06939,-1.97223 1.29166,-3.30556l3.26385,0l0,35.4583l-4.26394,0Z" style="fill:#0071bc;fill-rule:nonzero;"/><path d="M1430.07,1848.43c0.458272,-1.52779 1.18052,-2.86112 2.18061,-3.97223c0.972112,-1.125 2.19434,-2 3.66656,-2.625c1.45836,-0.638882 3.125,-0.958331 5.00005,-0.958331c1.52779,0 2.97228,0.236114 4.31951,0.680558c1.34722,0.444444 2.52775,1.09722 3.5277,1.94445c0.999959,0.861104 1.79164,1.91666 2.37503,3.18055c0.583267,1.26389 0.874964,2.73611 0.874964,4.40278c0,1.55555 -0.23613,2.94445 -0.722249,4.15277c-0.48612,1.19445 -1.12495,2.2639 -1.93049,3.22223c-0.791677,0.94444 -1.70835,1.80556 -2.75002,2.56944c-1.02781,0.763893 -2.09719,1.5 -3.19443,2.20834c-1.09723,0.666666 -2.20833,1.31944 -3.30556,1.97221c-1.09723,0.638898 -2.11118,1.33333 -3.01387,2.06944c-0.930532,0.736125 -1.70835,1.52779 -2.36117,2.37501c-0.652695,0.847212 -1.06939,1.83333 -1.2778,2.93055l18.2083,0l0,3.75001l-23.1527,0c0.166575,-2.09723 0.54156,-3.90278 1.12495,-5.375c0.583267,-1.48611 1.3195,-2.77778 2.22219,-3.875c0.902812,-1.09722 1.91676,-2.06944 3.05557,-2.90278c1.12495,-0.833337 2.31946,-1.61111 3.54169,-2.34722c1.49994,-0.930564 2.8333,-1.79167 3.95838,-2.58334c1.12495,-0.777769 2.06935,-1.56945 2.81944,-2.375c0.749969,-0.791661 1.31938,-1.66666 1.70822,-2.59722c0.375112,-0.930548 0.569534,-2.01389 0.569534,-3.24999c0,-0.958331 -0.180562,-1.84722 -0.555547,-2.625c-0.361125,-0.777769 -0.847244,-1.45833 -1.47222,-2.02778c-0.611115,-0.555547 -1.33336,-0.999991 -2.16675,-1.29166c-0.833257,-0.305557 -1.72221,-0.458336 -2.65274,-0.458336c-1.23609,0 -2.29162,0.263882 -3.18057,0.777769c-0.874964,0.513903 -1.61107,1.19445 -2.16662,2.02778c-0.569534,0.833337 -0.972239,1.77778 -1.23609,2.81944c-0.250117,1.05556 -0.347265,2.11112 -0.319544,3.18057l-4.24995,0c-0.0972748,-1.80556 0.0832876,-3.47223 0.555547,-5Z" style="fill:#0071bc;fill-rule:nonzero;"/><path d="M1461.83,1863.35c0.0834147,1.65278 0.361125,3.20834 0.805664,4.65279c0.444412,1.45833 1.18052,2.68056 2.18048,3.68055c0.986099,1.00001 2.38889,1.5 4.19451,1.5c1.8055,0 3.19443,-0.499996 4.20825,-1.5c0.986099,-0.999991 1.72221,-2.22222 2.16675,-3.68055c0.444412,-1.44445 0.722122,-3.00001 0.805537,-4.65279c0.0694275,-1.63889 0.124995,-3.13889 0.124995,-4.47222c0,-0.861104 -0.0138601,-1.81944 -0.0278473,-2.87499c-0.0277201,-1.04167 -0.0971476,-2.09723 -0.24999,-3.13889c-0.152715,-1.05556 -0.374985,-2.08333 -0.652695,-3.08332c-0.277837,-1.00001 -0.694529,-1.875 -1.25008,-2.625c-0.555547,-0.750001 -1.23609,-1.36112 -2.08333,-1.81945c-0.819397,-0.472212 -1.8472,-0.708326 -3.04159,-0.708326c-1.19451,0 -2.22232,0.236114 -3.05557,0.708326c-0.833384,0.458336 -1.52779,1.06945 -2.06947,1.81945c-0.555547,0.750001 -0.972239,1.625 -1.24995,2.625c-0.291697,0.999991 -0.500107,2.02777 -0.652822,3.08332c-0.152842,1.04167 -0.23613,2.09723 -0.24999,3.13889c-0.0138601,1.05556 -0.0278473,2.01389 -0.0278473,2.87499c0,1.33333 0.0417074,2.83333 0.124995,4.47222ZM1457.32,1854.87c0.0555674,-1.38888 0.222143,-2.76389 0.48612,-4.09722c0.27771,-1.33333 0.652695,-2.59722 1.15267,-3.79167c0.500107,-1.20834 1.19451,-2.25 2.05561,-3.15277c0.861104,-0.90278 1.95834,-1.62501 3.27784,-2.15279c1.31938,-0.541655 2.88887,-0.805553 4.72221,-0.805553c1.83334,0 3.40271,0.263898 4.72221,0.805553c1.31938,0.527779 2.41661,1.25001 3.27772,2.15279c0.861104,0.902764 1.55563,1.94443 2.05561,3.15277c0.49998,1.19445 0.874964,2.45833 1.13881,3.79167c0.277837,1.33333 0.444539,2.70834 0.49998,4.09722c0.0695546,1.40278 0.111135,2.75 0.111135,4.05556c0,1.29166 -0.0415802,2.65277 -0.111135,4.05555c-0.0554403,1.38888 -0.222143,2.76389 -0.49998,4.09722c-0.26385,1.33333 -0.638835,2.58333 -1.13881,3.77777c-0.49998,1.18055 -1.19451,2.22222 -2.05561,3.125c-0.861104,0.888888 -1.94448,1.59723 -3.24999,2.12501c-1.30552,0.513887 -2.88887,0.763877 -4.74993,0.763877c-1.83334,0 -3.40284,-0.24999 -4.72221,-0.763877c-1.3195,-0.527779 -2.41674,-1.23612 -3.27784,-2.12501c-0.861104,-0.90278 -1.55551,-1.94445 -2.05561,-3.125c-0.49998,-1.19445 -0.874964,-2.44444 -1.15267,-3.77777c-0.263977,-1.33333 -0.430552,-2.70834 -0.48612,-4.09722c-0.0694275,-1.40278 -0.111135,-2.76389 -0.111135,-4.05555c0,-1.30556 0.0417074,-2.65279 0.111135,-4.05556Z" style="fill:#0071bc;fill-rule:nonzero;"/><path d="M1505.79,1859.65c-0.319417,-1.15279 -0.805537,-2.18056 -1.45836,-3.06945c-0.652822,-0.90278 -1.47222,-1.625 -2.50003,-2.15278c-1.01382,-0.527779 -2.20833,-0.805553 -3.56941,-0.805553c-1.43051,0 -2.65274,0.291665 -3.65283,0.847228c-0.999959,0.569439 -1.81936,1.31944 -2.44446,2.2361c-0.638835,0.916672 -1.09711,1.95834 -1.37494,3.125c-0.291697,1.16668 -0.430552,2.34723 -0.430552,3.54168c0,1.27778 0.152715,2.49999 0.444412,3.68055c0.305557,1.18057 0.777817,2.22224 1.43064,3.125c0.652695,0.90278 1.48608,1.62501 2.52775,2.18056c1.02781,0.541671 2.27776,0.819445 3.74997,0.819445c1.45836,0 2.69445,-0.277774 3.68055,-0.847212c0.972239,-0.569455 1.76392,-1.31946 2.37503,-2.25c0.597254,-0.930564 1.02781,-2 1.29166,-3.20834c0.26385,-1.19445 0.402832,-2.43055 0.402832,-3.69444c0,-1.20834 -0.166702,-2.37501 -0.47226,-3.52778ZM1490.51,1850.49l0,3.48611l0.0972748,0c0.708389,-1.43056 1.80562,-2.47223 3.30556,-3.125c1.49994,-0.638882 3.13886,-0.972223 4.94448,-0.972223c1.99992,0 3.73611,0.375001 5.22219,1.11111c1.48608,0.722233 2.72217,1.72222 3.70827,2.97222c0.986226,1.25001 1.72234,2.69445 2.22232,4.31945c0.49998,1.63889 0.749969,3.36111 0.749969,5.20833c0,1.83334 -0.23613,3.55557 -0.722249,5.19446c-0.48612,1.625 -1.22223,3.05556 -2.20833,4.27777c-0.972239,1.20834 -2.20833,2.16667 -3.69441,2.87499c-1.48608,0.69445 -3.20841,1.04167 -5.18061,1.04167c-0.624975,0 -1.33324,-0.0555515 -2.12491,-0.194438c-0.777817,-0.138887 -1.55563,-0.347217 -2.31946,-0.652774c-0.763957,-0.291665 -1.48621,-0.708342 -2.18061,-1.22223c-0.680542,-0.513887 -1.24995,-1.15277 -1.72221,-1.93055l-0.0972748,0l0,13.3056l-4.24995,0l0,-35.6944l4.24995,0Z" style="fill:#0071bc;fill-rule:nonzero;"/><path d="M1513.71,1850.49l5.45832,0l6.19443,9.04167l6.44442,-9.04167l5.11119,0l-8.90287,11.8889l10.0001,13.9583l-5.45832,0l-7.19452,-10.7083l-7.19439,10.7083l-5.15277,0l9.69442,-13.6111l-9.00002,-12.2361Z" style="fill:#0071bc;fill-rule:nonzero;"/><path d="M1579.96,1861.97l0,3.40277l-10.8888,0l0,10.9583l-3.40284,0l0,-10.9583l-10.9028,0l0,-3.40277l10.9028,0l0,-10.9444l3.40284,0l0,10.9444l10.8888,0Z" style="fill:#0071bc;fill-rule:nonzero;"/></g></svg>