<?xml version="1.0" standalone="no"?><!DOCTYPE svg PUBLIC "-//W3C//DTD SVG 1.1//EN" "http://www.w3.org/Graphics/SVG/1.1/DTD/svg11.dtd"><svg width="100%" height="100%" viewBox="0 0 230 412" version="1.1" xmlns="http://www.w3.org/2000/svg" xmlns:xlink="http://www.w3.org/1999/xlink" xml:space="preserve" style="fill-rule:evenodd;clip-rule:evenodd;stroke-linejoin:round;stroke-miterlimit:1.41421;"><g id="test-tube_1_"><path id="shadow_1_" d="M128.02,9.151c-0.184,0.737 -0.188,1.529 -0.033,2.365c0,0 2.507,16.642 -0.339,24.048l-121.005,314.633l0.009,0.004c-8.636,23.11 2.937,48.911 26.014,57.787c23.077,8.875 48.955,-2.524 58.03,-25.464l0.011,0.005l121.005,-314.634c2.366,-6.155 15.86,-18.079 15.86,-18.079c0.677,-0.516 1.202,-1.108 1.56,-1.778l0.059,-0.122c0.065,-0.132 0.141,-0.258 0.193,-0.395c3.12,-8.113 -17.005,-23.405 -44.952,-34.152c-27.948,-10.748 -53.133,-12.884 -56.253,-4.771c-0.053,0.137 -0.083,0.281 -0.122,0.422l-0.037,0.131l0,2.13163e-14Z" style="fill:#000;fill-opacity:0.0980392;fill-rule:nonzero;"/><path id="tube_1_" d="M124.523,6.477c-0.185,0.737 -0.19,1.529 -0.033,2.365c0,0 2.508,16.642 -0.34,24.048l-121.006,314.632l0.011,0.004c-8.635,23.11 2.937,48.911 26.014,57.787c23.075,8.875 48.955,-2.524 58.03,-25.464l0.011,0.005l121.005,-314.634c2.365,-6.155 15.86,-18.079 15.86,-18.079c0.677,-0.516 1.202,-1.107 1.56,-1.778l0.058,-0.122c0.065,-0.131 0.141,-0.258 0.193,-0.395c3.12,-8.113 -17.005,-23.404 -44.951,-34.152c-27.948,-10.748 -53.133,-12.884 -56.253,-4.771c-0.053,0.137 -0.083,0.281 -0.122,0.422l-0.037,0.132l0,3.37508e-14Z" style="fill:url(#tag1);fill-rule:nonzero;"/><path id="liquid_1_" d="M162.48,148.814l-87.262,226.896l0.057,0.021c-6.436,16.262 -25.166,24.723 -41.781,18.333c-16.615,-6.39 -25.608,-25.512 -19.488,-41.897l55.758,-144.982c0,0 6.964,-11.233 20.637,-19.225c13.673,-7.991 24.949,-6.305 40.132,-13.053c15.182,-6.748 31.947,-26.093 31.947,-26.093Z" style="fill:url(#tag2);fill-rule:nonzero;"/><path id="top_1_" d="M178.16,17.9548c17.3456,6.6714 29.9846,15.778 28.2299,20.3402c-1.75469,4.5622 -17.2386,2.85235 -34.5842,-3.81904c-17.3456,-6.6714 -29.9846,-15.778 -28.2299,-20.3402c1.75469,-4.5622 17.2386,-2.85235 34.5842,3.81904l-2.84217e-14,-3.55271e-15Z" style="fill:#333;"/><path id="side-reflection_1_" d="M124.489,8.841c0,0 2.471,16.737 -0.34,24.048l-121.005,314.633l0.011,0.004c-8.635,23.11 2.937,48.911 26.014,57.787c4.005,1.54 8.092,2.455 12.164,2.822c-15.556,-11.702 -22.23,-32.632 -15.093,-51.73l-0.011,-0.004l118.604,-308.392c0,0 -16.144,-15.159 -20.344,-39.168l0,4.08562e-14Z" style="fill:#fff;fill-opacity:0.298039;fill-rule:nonzero;"/><g id="bubbles_1_"><circle cx="85.531" cy="211.806" r="3.506" style="fill:#fff;fill-opacity:0.498039;"/><circle cx="108.514" cy="237.227" r="5.285" style="fill:#fff;fill-opacity:0.498039;"/><circle cx="73.429" cy="267.459" r="9.915" style="fill:#fff;fill-opacity:0.498039;"/><circle cx="57.375" cy="285.795" r="5.286" style="fill:#fff;fill-opacity:0.498039;"/><circle cx="78.43" cy="325.008" r="3.506" style="fill:#fff;fill-opacity:0.498039;"/></g></g><defs><linearGradient id="tag1" x1="0" y1="0" x2="1" y2="0" gradientUnits="userSpaceOnUse" gradientTransform="matrix(101.206,38.9182,-38.9182,101.206,54.4557,188.547)"><stop offset="0%" style="stop-color:#919191;stop-opacity:1"/><stop offset="100%" style="stop-color:#fff;stop-opacity:1"/></linearGradient><linearGradient id="tag2" x1="0" y1="0" x2="1" y2="0" gradientUnits="userSpaceOnUse" gradientTransform="matrix(61.27,23.561,-23.561,61.27,51.8696,253.705)"><stop offset="0%" style="stop-color:#900;stop-opacity:1"/><stop offset="100%" style="stop-color:#e80000;stop-opacity:1"/></linearGradient></defs></svg>