<?xml version="1.0" standalone="no"?><!DOCTYPE svg PUBLIC "-//W3C//DTD SVG 1.1//EN" "http://www.w3.org/Graphics/SVG/1.1/DTD/svg11.dtd"><svg width="100%" height="100%" viewBox="0 0 1141 929" version="1.1" xmlns="http://www.w3.org/2000/svg" xmlns:xlink="http://www.w3.org/1999/xlink" xml:space="preserve" style="fill-rule:evenodd;clip-rule:evenodd;stroke-linejoin:round;stroke-miterlimit:1.41421;"><g><path d="M1139.13,113.014c-41.9167,18.5972 -86.9584,31.1528 -134.236,36.8056c48.25,-28.9167 85.3055,-74.7222 102.764,-129.292c-45.1528,26.7778 -95.1806,46.2222 -148.403,56.7083c-42.6388,-45.4167 -103.375,-73.8056 -170.597,-73.8056c-129.069,0 -233.708,104.639 -233.708,233.694c0,18.3194 2.06941,36.1528 6.05551,53.2639c-194.236,-9.74998 -366.444,-102.792 -481.708,-244.181c-20.1111,34.5139 -31.6389,74.6667 -31.6389,117.5c0,81.0694 41.2639,152.611 103.972,194.514c-38.3194,-1.20831 -74.3472,-11.7222 -105.861,-29.2222c-0.0138879,0.972239 -0.0138879,1.94448 -0.0138879,2.93058c0,113.236 80.5556,207.694 187.472,229.153c-19.625,5.34722 -40.2639,8.20834 -61.5833,8.20834c-15.0555,0 -29.6944,-1.47222 -43.9583,-4.19445c29.7361,92.8472 116.042,160.417 218.306,162.306c-79.9861,62.6806 -180.75,100.042 -290.25,100.042c-18.8611,0 -37.4583,-1.11111 -55.7361,-3.26389c103.417,66.3056 226.264,104.986 358.236,104.986c429.875,0 664.944,-356.111 664.944,-664.931c0,-10.1389 -0.222206,-20.2222 -0.680542,-30.2361c45.6527,-32.9583 85.2916,-74.1111 116.625,-120.986Z" style="fill:#5ca7dc;fill-rule:nonzero;"/></g></svg>