<?xml version="1.0" standalone="no"?><!DOCTYPE svg PUBLIC "-//W3C//DTD SVG 1.1//EN" "http://www.w3.org/Graphics/SVG/1.1/DTD/svg11.dtd"><svg width="100%" height="100%" viewBox="0 0 500 500" version="1.1" xmlns="http://www.w3.org/2000/svg" xmlns:xlink="http://www.w3.org/1999/xlink" xml:space="preserve" style="fill-rule:evenodd;clip-rule:evenodd;stroke-linejoin:round;stroke-miterlimit:1.41421;"><g><path d="M500,450c0,27.625 -22.3889,50 -50,50l-400,0c-27.625,0 -50,-22.375 -50,-50l0,-400c0,-27.6111 22.375,-50 50,-50l400,0c27.6111,0 50,22.3889 50,50l0,400Z" style="fill:#17b7ea;fill-rule:nonzero;"/><path d="M420.708,166.056c-1.59721,35.1667 -26.1667,83.3194 -73.6806,144.444c-49.125,63.8333 -90.6944,95.75 -124.681,95.75c-21.0694,0 -38.9028,-19.4306 -53.4583,-58.3056c-9.72222,-35.6528 -19.4305,-71.2917 -29.1528,-106.944c-10.8194,-38.8611 -22.4167,-58.3195 -34.8194,-58.3195c-2.70833,0 -12.1667,5.69445 -28.3611,17.0139l-16.9861,-21.8889c17.8194,-15.6667 35.4167,-31.3334 52.7222,-47.0139c23.7778,-20.5417 41.6528,-31.3472 53.5417,-32.4444c28.1111,-2.70834 45.4306,16.5139 51.9167,57.6528c7.02777,44.3889 11.8889,72 14.6111,82.7917c8.11111,36.8333 17.0417,55.2361 26.7778,55.2361c7.55555,0 18.9167,-11.9445 34.0694,-35.8472c15.125,-23.875 23.2222,-42.0556 24.3194,-54.5417c2.16668,-20.625 -5.94444,-30.9583 -24.3194,-30.9583c-8.65278,0 -17.5694,2.00001 -26.75,5.93055c17.7639,-58.1528 51.6944,-86.4028 101.764,-84.7917c37.125,1.09723 54.6389,25.1667 52.4861,72.2361Z" style="fill:#fff;fill-rule:nonzero;"/></g></svg>